# MagicaVoxel @ Ephtracy

# group
o 

# material
mtllib Pilz.mtl
usemtl palette

# normals
vn -1 0 0
vn 1 0 0
vn 0 0 1
vn 0 0 -1
vn 0 -1 0
vn 0 1 0

# texcoords
vt 0.177734 0.5
vt 0.255859 0.5
vt 0.306641 0.5
vt 0.361328 0.5
vt 0.962891 0.5

# verts
v -0.5 0.5 0.4
v -0.5 0.5 -0.2
v -0.5 0.5 -0.3
v -0.5 0.5 -0.4
v -0.5 0.6 0.4
v -0.5 0.6 0.2
v -0.5 0.6 -0.2
v -0.5 0.6 -0.3
v -0.5 0.7 0.4
v -0.5 0.7 0.3
v -0.5 0.7 0
v -0.5 0.7 -0.1
v -0.5 0.7 -0.3
v -0.5 0.7 -0.4
v -0.5 0.8 0.3
v -0.5 0.8 0.2
v -0.5 0.8 0
v -0.5 0.8 -0.1
v -0.5 0.8 -0.3
v -0.4 0.5 0.5
v -0.4 0.5 0.4
v -0.4 0.5 -0.4
v -0.4 0.5 -0.5
v -0.4 0.6 0.4
v -0.4 0.7 0.5
v -0.4 0.7 0.4
v -0.4 0.7 0.3
v -0.4 0.7 -0.3
v -0.4 0.7 -0.4
v -0.4 0.7 -0.5
v -0.4 0.8 0.4
v -0.4 0.8 0.3
v -0.4 0.8 0.2
v -0.4 0.8 0
v -0.4 0.8 -0.1
v -0.4 0.8 -0.3
v -0.4 0.8 -0.4
v -0.4 0.9 0.3
v -0.4 0.9 -0.3
v -0.3 0.7 0.5
v -0.3 0.7 0.4
v -0.3 0.7 -0.4
v -0.3 0.7 -0.5
v -0.3 0.8 0.5
v -0.3 0.8 0.4
v -0.3 0.8 0.3
v -0.3 0.8 -0.3
v -0.3 0.8 -0.4
v -0.3 0.8 -0.5
v -0.3 0.9 0.4
v -0.3 0.9 0.3
v -0.3 0.9 0
v -0.3 0.9 -0.3
v -0.3 0.9 -0.4
v -0.3 1 0.3
v -0.3 1 0
v -0.3 1 -0.3
v -0.2 0 0.2
v -0.2 0 -0.2
v -0.2 0.5 0.2
v -0.2 0.5 -0.2
v -0.2 0.6 0.2
v -0.2 0.6 -0.2
v 0.2 0.5 0.3
v 0.2 0.5 0.2
v 0.2 0.5 -0.2
v 0.2 0.5 -0.3
v 0.2 0.6 0.3
v 0.2 0.6 0.2
v 0.2 0.6 -0.2
v 0.2 0.6 -0.3
v 0.3 0.5 0.2
v 0.3 0.5 -0.2
v 0.3 0.6 0.2
v 0.3 0.6 -0.2
v -0.3 0.5 0.2
v -0.3 0.5 -0.2
v -0.3 0.6 0.2
v -0.3 0.6 -0.2
v -0.2 0.5 0.3
v -0.2 0.5 0.2
v -0.2 0.5 -0.2
v -0.2 0.5 -0.3
v -0.2 0.6 0.3
v -0.2 0.6 0.2
v -0.2 0.6 -0.2
v -0.2 0.6 -0.3
v 0.2 0 0.2
v 0.2 0 -0.2
v 0.2 0.5 0.2
v 0.2 0.5 -0.2
v 0.2 0.6 0.2
v 0.2 0.6 -0.2
v 0.3 0.7 0.5
v 0.3 0.7 0.4
v 0.3 0.7 -0.4
v 0.3 0.7 -0.5
v 0.3 0.8 0.5
v 0.3 0.8 0.4
v 0.3 0.8 0.3
v 0.3 0.8 -0.3
v 0.3 0.8 -0.4
v 0.3 0.8 -0.5
v 0.3 0.9 0.4
v 0.3 0.9 0.3
v 0.3 0.9 0
v 0.3 0.9 -0.2
v 0.3 0.9 -0.3
v 0.3 0.9 -0.4
v 0.3 1 0.3
v 0.3 1 -0.3
v 0.4 0.5 0.5
v 0.4 0.5 0.4
v 0.4 0.5 -0.4
v 0.4 0.5 -0.5
v 0.4 0.6 0.4
v 0.4 0.6 -0.4
v 0.4 0.6 -0.5
v 0.4 0.7 0.5
v 0.4 0.7 0.4
v 0.4 0.7 0.3
v 0.4 0.7 -0.3
v 0.4 0.7 -0.4
v 0.4 0.7 -0.5
v 0.4 0.8 0.4
v 0.4 0.8 0.3
v 0.4 0.8 0
v 0.4 0.8 -0.2
v 0.4 0.8 -0.3
v 0.4 0.8 -0.4
v 0.4 0.9 0.3
v 0.4 0.9 0
v 0.4 0.9 -0.2
v 0.4 0.9 -0.3
v 0.5 0.5 0.4
v 0.5 0.5 -0.4
v 0.5 0.6 0.4
v 0.5 0.6 0.3
v 0.5 0.6 -0.3
v 0.5 0.6 -0.4
v 0.5 0.7 0.4
v 0.5 0.7 0.3
v 0.5 0.7 -0.3
v 0.5 0.7 -0.4
v 0.5 0.8 0.3
v 0.5 0.8 -0.3
v -0.4 0.5 0.5
v -0.4 0.7 0.5
v -0.3 0.7 0.5
v -0.3 0.8 0.5
v -0.2 0.5 0.5
v -0.2 0.6 0.5
v -0.1 0.5 0.5
v -0.1 0.6 0.5
v 0.2 0.7 0.5
v 0.2 0.8 0.5
v 0.3 0.7 0.5
v 0.3 0.8 0.5
v 0.4 0.5 0.5
v 0.4 0.7 0.5
v -0.5 0.5 0.4
v -0.5 0.6 0.4
v -0.5 0.7 0.4
v -0.4 0.5 0.4
v -0.4 0.6 0.4
v -0.4 0.7 0.4
v -0.4 0.8 0.4
v -0.3 0.7 0.4
v -0.3 0.8 0.4
v -0.3 0.9 0.4
v -0.1 0.8 0.4
v -0.1 0.9 0.4
v 0.1 0.8 0.4
v 0.1 0.9 0.4
v 0.2 0.8 0.4
v 0.3 0.7 0.4
v 0.3 0.8 0.4
v 0.3 0.9 0.4
v 0.4 0.5 0.4
v 0.4 0.6 0.4
v 0.4 0.7 0.4
v 0.4 0.8 0.4
v 0.5 0.5 0.4
v 0.5 0.6 0.4
v 0.5 0.7 0.4
v -0.5 0.7 0.3
v -0.5 0.8 0.3
v -0.4 0.7 0.3
v -0.4 0.8 0.3
v -0.4 0.9 0.3
v -0.3 0.8 0.3
v -0.3 0.9 0.3
v -0.3 1 0.3
v -0.1 0.9 0.3
v -0.1 1 0.3
v 0.1 0.9 0.3
v 0.1 1 0.3
v 0.3 0.8 0.3
v 0.3 0.9 0.3
v 0.3 1 0.3
v 0.4 0.7 0.3
v 0.4 0.8 0.3
v 0.4 0.9 0.3
v 0.5 0.7 0.3
v 0.5 0.8 0.3
v -0.2 0 0.2
v -0.2 0.5 0.2
v -0.2 0.6 0.2
v 0.2 0 0.2
v 0.2 0.5 0.2
v 0.2 0.6 0.2
v -0.3 0.5 -0.2
v -0.3 0.6 -0.2
v -0.2 0.5 -0.2
v -0.2 0.6 -0.2
v 0.2 0.5 -0.2
v 0.2 0.6 -0.2
v 0.3 0.5 -0.2
v 0.3 0.6 -0.2
v -0.2 0.5 -0.3
v -0.2 0.6 -0.3
v 0.2 0.5 -0.3
v 0.2 0.6 -0.3
v -0.2 0.5 0.3
v -0.2 0.6 0.3
v 0.2 0.5 0.3
v 0.2 0.6 0.3
v -0.3 0.5 0.2
v -0.3 0.6 0.2
v -0.2 0.5 0.2
v -0.2 0.6 0.2
v 0.2 0.5 0.2
v 0.2 0.6 0.2
v 0.3 0.5 0.2
v 0.3 0.6 0.2
v -0.2 0 -0.2
v -0.2 0.5 -0.2
v -0.2 0.6 -0.2
v 0.2 0 -0.2
v 0.2 0.5 -0.2
v 0.2 0.6 -0.2
v -0.5 0.7 -0.3
v -0.5 0.8 -0.3
v -0.4 0.7 -0.3
v -0.4 0.8 -0.3
v -0.4 0.9 -0.3
v -0.3 0.8 -0.3
v -0.3 0.9 -0.3
v -0.3 1 -0.3
v -0.2 0.9 -0.3
v -0.2 1 -0.3
v -0.1 0.9 -0.3
v 0 0.9 -0.3
v 0.3 0.8 -0.3
v 0.3 0.9 -0.3
v 0.3 1 -0.3
v 0.4 0.7 -0.3
v 0.4 0.8 -0.3
v 0.4 0.9 -0.3
v 0.5 0.7 -0.3
v 0.5 0.8 -0.3
v -0.5 0.5 -0.4
v -0.5 0.7 -0.4
v -0.4 0.5 -0.4
v -0.4 0.7 -0.4
v -0.4 0.8 -0.4
v -0.3 0.7 -0.4
v -0.3 0.8 -0.4
v -0.3 0.9 -0.4
v -0.1 0.8 -0.4
v -0.1 0.9 -0.4
v 0 0.8 -0.4
v 0 0.9 -0.4
v 0.3 0.7 -0.4
v 0.3 0.8 -0.4
v 0.3 0.9 -0.4
v 0.4 0.5 -0.4
v 0.4 0.6 -0.4
v 0.4 0.7 -0.4
v 0.4 0.8 -0.4
v 0.5 0.5 -0.4
v 0.5 0.6 -0.4
v 0.5 0.7 -0.4
v -0.4 0.5 -0.5
v -0.4 0.7 -0.5
v -0.3 0.5 -0.5
v -0.3 0.6 -0.5
v -0.3 0.7 -0.5
v -0.3 0.8 -0.5
v -0.2 0.5 -0.5
v -0.2 0.6 -0.5
v 0.3 0.6 -0.5
v 0.3 0.7 -0.5
v 0.3 0.8 -0.5
v 0.4 0.5 -0.5
v 0.4 0.6 -0.5
v 0.4 0.7 -0.5
v -0.2 0 0.2
v 0.2 0 0.2
v -0.2 0 -0.2
v 0.2 0 -0.2
v -0.4 0.5 0.5
v -0.2 0.5 0.5
v -0.1 0.5 0.5
v 0.4 0.5 0.5
v -0.5 0.5 0.4
v -0.4 0.5 0.4
v -0.3 0.5 0.4
v -0.2 0.5 0.4
v -0.1 0.5 0.4
v 0.3 0.5 0.4
v 0.4 0.5 0.4
v 0.5 0.5 0.4
v -0.4 0.5 0.3
v -0.3 0.5 0.3
v -0.2 0.5 0.3
v 0.2 0.5 0.3
v 0.3 0.5 0.3
v 0.4 0.5 0.3
v -0.3 0.5 0.2
v -0.2 0.5 0.2
v 0.2 0.5 0.2
v 0.3 0.5 0.2
v -0.5 0.5 -0.2
v -0.4 0.5 -0.2
v -0.3 0.5 -0.2
v -0.2 0.5 -0.2
v 0.2 0.5 -0.2
v 0.3 0.5 -0.2
v -0.5 0.5 -0.3
v -0.4 0.5 -0.3
v -0.3 0.5 -0.3
v -0.2 0.5 -0.3
v 0.2 0.5 -0.3
v 0.3 0.5 -0.3
v 0.4 0.5 -0.3
v -0.5 0.5 -0.4
v -0.4 0.5 -0.4
v -0.3 0.5 -0.4
v -0.2 0.5 -0.4
v 0.3 0.5 -0.4
v 0.4 0.5 -0.4
v 0.5 0.5 -0.4
v -0.4 0.5 -0.5
v -0.3 0.5 -0.5
v -0.2 0.5 -0.5
v 0.4 0.5 -0.5
v -0.2 0.6 0.3
v 0.2 0.6 0.3
v -0.3 0.6 0.2
v -0.2 0.6 0.2
v 0.2 0.6 0.2
v 0.3 0.6 0.2
v -0.3 0.6 -0.2
v -0.2 0.6 -0.2
v 0.2 0.6 -0.2
v 0.3 0.6 -0.2
v -0.2 0.6 -0.3
v 0.2 0.6 -0.3
v -0.4 0.7 0.5
v -0.3 0.7 0.5
v 0.3 0.7 0.5
v 0.4 0.7 0.5
v -0.5 0.7 0.4
v -0.4 0.7 0.4
v -0.3 0.7 0.4
v 0.3 0.7 0.4
v 0.4 0.7 0.4
v 0.5 0.7 0.4
v -0.5 0.7 0.3
v -0.4 0.7 0.3
v 0.4 0.7 0.3
v 0.5 0.7 0.3
v -0.5 0.7 -0.3
v -0.4 0.7 -0.3
v 0.4 0.7 -0.3
v 0.5 0.7 -0.3
v -0.5 0.7 -0.4
v -0.4 0.7 -0.4
v -0.3 0.7 -0.4
v 0.3 0.7 -0.4
v 0.4 0.7 -0.4
v 0.5 0.7 -0.4
v -0.4 0.7 -0.5
v -0.3 0.7 -0.5
v 0.3 0.7 -0.5
v 0.4 0.7 -0.5
v -0.3 0.8 0.5
v 0.2 0.8 0.5
v 0.3 0.8 0.5
v -0.4 0.8 0.4
v -0.3 0.8 0.4
v -0.1 0.8 0.4
v 0.1 0.8 0.4
v 0.2 0.8 0.4
v 0.3 0.8 0.4
v 0.4 0.8 0.4
v -0.5 0.8 0.3
v -0.4 0.8 0.3
v -0.3 0.8 0.3
v 0.3 0.8 0.3
v 0.4 0.8 0.3
v 0.5 0.8 0.3
v -0.5 0.8 0.2
v -0.4 0.8 0.2
v -0.5 0.8 0
v -0.4 0.8 0
v 0.4 0.8 0
v -0.5 0.8 -0.1
v -0.4 0.8 -0.1
v 0.4 0.8 -0.2
v -0.5 0.8 -0.3
v -0.4 0.8 -0.3
v -0.3 0.8 -0.3
v 0.3 0.8 -0.3
v 0.4 0.8 -0.3
v 0.5 0.8 -0.3
v -0.4 0.8 -0.4
v -0.3 0.8 -0.4
v -0.1 0.8 -0.4
v 0 0.8 -0.4
v 0.3 0.8 -0.4
v 0.4 0.8 -0.4
v -0.3 0.8 -0.5
v 0.3 0.8 -0.5
v -0.3 0.9 0.4
v -0.1 0.9 0.4
v 0.1 0.9 0.4
v 0.3 0.9 0.4
v -0.4 0.9 0.3
v -0.3 0.9 0.3
v -0.1 0.9 0.3
v 0.1 0.9 0.3
v 0.3 0.9 0.3
v 0.4 0.9 0.3
v -0.3 0.9 0
v 0.3 0.9 0
v 0.4 0.9 0
v 0.3 0.9 -0.2
v 0.4 0.9 -0.2
v -0.4 0.9 -0.3
v -0.3 0.9 -0.3
v -0.2 0.9 -0.3
v -0.1 0.9 -0.3
v 0 0.9 -0.3
v 0.3 0.9 -0.3
v 0.4 0.9 -0.3
v -0.3 0.9 -0.4
v -0.1 0.9 -0.4
v 0 0.9 -0.4
v 0.3 0.9 -0.4
v -0.3 1 0.3
v -0.1 1 0.3
v 0.1 1 0.3
v 0.3 1 0.3
v -0.1 1 0.2
v 0.1 1 0.2
v 0.1 1 0.1
v 0.2 1 0.1
v -0.3 1 0
v -0.1 1 0
v 0.1 1 0
v 0.2 1 0
v -0.2 1 -0.2
v -0.1 1 -0.2
v -0.3 1 -0.3
v -0.2 1 -0.3
v 0.3 1 -0.3

# faces
f 5/2/1 2/2/1 1/2/1
f 6/2/1 2/2/1 5/2/1
f 7/1/1 3/1/1 2/1/1
f 7/2/1 2/2/1 6/2/1
f 8/2/1 4/2/1 3/2/1
f 8/1/1 3/1/1 7/1/1
f 9/1/1 6/1/1 5/1/1
f 10/1/1 6/1/1 9/1/1
f 11/2/1 7/2/1 6/2/1
f 11/2/1 8/2/1 7/2/1
f 12/2/1 8/2/1 11/2/1
f 13/2/1 4/2/1 8/2/1
f 13/2/1 8/2/1 12/2/1
f 14/2/1 4/2/1 13/2/1
f 15/1/1 6/1/1 10/1/1
f 16/2/1 11/2/1 6/2/1
f 16/1/1 6/1/1 15/1/1
f 17/1/1 12/1/1 11/1/1
f 17/2/1 11/2/1 16/2/1
f 18/2/1 13/2/1 12/2/1
f 18/1/1 12/1/1 17/1/1
f 19/2/1 13/2/1 18/2/1
f 24/2/1 21/2/1 20/2/1
f 25/2/1 24/2/1 20/2/1
f 26/2/1 24/2/1 25/2/1
f 29/2/1 23/2/1 22/2/1
f 30/2/1 23/2/1 29/2/1
f 31/2/1 27/2/1 26/2/1
f 32/2/1 27/2/1 31/2/1
f 36/2/1 29/2/1 28/2/1
f 37/2/1 29/2/1 36/2/1
f 38/2/1 35/2/1 34/2/1
f 38/2/1 36/2/1 35/2/1
f 38/2/1 33/2/1 32/2/1
f 38/2/1 34/2/1 33/2/1
f 39/2/1 36/2/1 38/2/1
f 44/2/1 41/2/1 40/2/1
f 45/2/1 41/2/1 44/2/1
f 48/2/1 43/2/1 42/2/1
f 49/2/1 43/2/1 48/2/1
f 50/2/1 46/2/1 45/2/1
f 51/2/1 46/2/1 50/2/1
f 53/2/1 48/2/1 47/2/1
f 54/2/1 48/2/1 53/2/1
f 55/2/1 52/2/1 51/2/1
f 56/1/1 53/1/1 52/1/1
f 56/2/1 52/2/1 55/2/1
f 57/1/1 53/1/1 56/1/1
f 60/5/1 59/5/1 58/5/1
f 61/5/1 59/5/1 60/5/1
f 62/5/1 61/5/1 60/5/1
f 63/5/1 61/5/1 62/5/1
f 68/5/1 65/5/1 64/5/1
f 69/5/1 65/5/1 68/5/1
f 70/5/1 67/5/1 66/5/1
f 71/5/1 67/5/1 70/5/1
f 74/5/1 73/5/1 72/5/1
f 75/5/1 73/5/1 74/5/1
f 76/5/2 77/5/2 78/5/2
f 78/5/2 77/5/2 79/5/2
f 80/4/2 81/4/2 84/4/2
f 84/4/2 81/4/2 85/4/2
f 82/5/2 83/5/2 86/5/2
f 86/5/2 83/5/2 87/5/2
f 88/5/2 89/5/2 90/5/2
f 90/5/2 89/5/2 91/5/2
f 90/5/2 91/5/2 92/5/2
f 92/5/2 91/5/2 93/5/2
f 94/1/2 95/1/2 98/1/2
f 98/1/2 95/1/2 99/1/2
f 96/2/2 97/2/2 102/2/2
f 102/2/2 97/2/2 103/2/2
f 99/2/2 100/2/2 104/2/2
f 104/2/2 100/2/2 105/2/2
f 101/2/2 102/2/2 108/2/2
f 108/2/2 102/2/2 109/2/2
f 106/2/2 107/2/2 110/2/2
f 107/2/2 108/2/2 110/2/2
f 105/2/2 106/2/2 110/2/2
f 110/2/2 108/2/2 111/2/2
f 112/2/2 113/2/2 116/2/2
f 114/2/2 115/2/2 117/2/2
f 117/2/2 115/2/2 118/2/2
f 112/2/2 116/2/2 119/2/2
f 119/2/2 116/2/2 120/2/2
f 117/1/2 118/1/2 123/1/2
f 123/1/2 118/1/2 124/1/2
f 120/2/2 121/2/2 125/2/2
f 125/2/2 121/2/2 126/2/2
f 122/1/2 123/1/2 129/1/2
f 129/1/2 123/1/2 130/1/2
f 126/2/2 127/2/2 131/2/2
f 127/1/2 128/1/2 132/1/2
f 131/2/2 127/2/2 132/2/2
f 128/2/2 129/2/2 133/2/2
f 132/1/2 128/1/2 133/1/2
f 133/2/2 129/2/2 134/2/2
f 135/2/2 136/2/2 137/2/2
f 137/2/2 136/2/2 138/2/2
f 138/2/2 136/2/2 139/2/2
f 139/2/2 136/2/2 140/2/2
f 137/1/2 138/1/2 141/1/2
f 138/2/2 139/2/2 142/2/2
f 141/1/2 138/1/2 142/1/2
f 139/1/2 140/1/2 143/1/2
f 142/2/2 139/2/2 143/2/2
f 143/1/2 140/1/2 144/1/2
f 142/2/2 143/2/2 145/2/2
f 145/2/2 143/2/2 146/2/2
f 149/2/3 148/2/3 147/2/3
f 151/2/3 149/2/3 147/2/3
f 151/2/3 150/2/3 149/2/3
f 152/2/3 150/2/3 151/2/3
f 153/1/3 152/1/3 151/1/3
f 154/2/3 150/2/3 152/2/3
f 154/1/3 152/1/3 153/1/3
f 155/2/3 154/2/3 153/2/3
f 155/2/3 150/2/3 154/2/3
f 156/2/3 150/2/3 155/2/3
f 157/2/3 155/2/3 153/2/3
f 157/1/3 156/1/3 155/1/3
f 158/1/3 156/1/3 157/1/3
f 159/2/3 157/2/3 153/2/3
f 160/2/3 157/2/3 159/2/3
f 164/2/3 162/2/3 161/2/3
f 165/1/3 163/1/3 162/1/3
f 165/2/3 162/2/3 164/2/3
f 166/1/3 163/1/3 165/1/3
f 168/2/3 167/2/3 166/2/3
f 169/2/3 167/2/3 168/2/3
f 171/2/3 170/2/3 169/2/3
f 172/2/3 170/2/3 171/2/3
f 173/1/3 172/1/3 171/1/3
f 174/1/3 172/1/3 173/1/3
f 175/2/3 174/2/3 173/2/3
f 177/2/3 174/2/3 175/2/3
f 178/2/3 174/2/3 177/2/3
f 181/2/3 177/2/3 176/2/3
f 182/2/3 177/2/3 181/2/3
f 183/2/3 180/2/3 179/2/3
f 184/1/3 181/1/3 180/1/3
f 184/2/3 180/2/3 183/2/3
f 185/1/3 181/1/3 184/1/3
f 188/1/3 187/1/3 186/1/3
f 189/1/3 187/1/3 188/1/3
f 191/2/3 190/2/3 189/2/3
f 192/2/3 190/2/3 191/2/3
f 194/2/3 193/2/3 192/2/3
f 195/2/3 193/2/3 194/2/3
f 196/1/3 195/1/3 194/1/3
f 197/1/3 195/1/3 196/1/3
f 199/2/3 197/2/3 196/2/3
f 200/2/3 197/2/3 199/2/3
f 202/2/3 199/2/3 198/2/3
f 203/2/3 199/2/3 202/2/3
f 204/2/3 202/2/3 201/2/3
f 205/2/3 202/2/3 204/2/3
f 209/5/3 207/5/3 206/5/3
f 209/5/3 208/5/3 207/5/3
f 210/5/3 208/5/3 209/5/3
f 211/5/3 208/5/3 210/5/3
f 214/5/3 213/5/3 212/5/3
f 215/5/3 213/5/3 214/5/3
f 218/5/3 217/5/3 216/5/3
f 219/5/3 217/5/3 218/5/3
f 222/5/3 221/5/3 220/5/3
f 223/5/3 221/5/3 222/5/3
f 224/5/4 225/5/4 226/5/4
f 226/5/4 225/5/4 227/5/4
f 228/4/4 229/4/4 230/4/4
f 230/4/4 229/4/4 231/4/4
f 232/5/4 233/5/4 234/5/4
f 234/5/4 233/5/4 235/5/4
f 236/5/4 237/5/4 239/5/4
f 237/5/4 238/5/4 239/5/4
f 239/5/4 238/5/4 240/5/4
f 240/5/4 238/5/4 241/5/4
f 242/2/4 243/2/4 244/2/4
f 244/2/4 243/2/4 245/2/4
f 245/2/4 246/2/4 247/2/4
f 247/2/4 246/2/4 248/2/4
f 248/1/4 249/1/4 250/1/4
f 250/1/4 249/1/4 251/1/4
f 250/2/4 251/2/4 252/2/4
f 252/2/4 251/2/4 253/2/4
f 253/2/4 251/2/4 255/2/4
f 255/2/4 251/2/4 256/2/4
f 254/2/4 255/2/4 258/2/4
f 258/2/4 255/2/4 259/2/4
f 257/2/4 258/2/4 260/2/4
f 260/2/4 258/2/4 261/2/4
f 262/2/4 263/2/4 264/2/4
f 264/2/4 263/2/4 265/2/4
f 265/2/4 266/2/4 267/2/4
f 267/2/4 266/2/4 268/2/4
f 268/2/4 269/2/4 270/2/4
f 270/2/4 269/2/4 271/2/4
f 270/1/4 271/1/4 272/1/4
f 272/1/4 271/1/4 273/1/4
f 272/2/4 273/2/4 275/2/4
f 275/2/4 273/2/4 276/2/4
f 274/1/4 275/1/4 279/1/4
f 279/1/4 275/1/4 280/1/4
f 277/2/4 278/2/4 281/2/4
f 278/1/4 279/1/4 282/1/4
f 281/2/4 278/2/4 282/2/4
f 282/1/4 279/1/4 283/1/4
f 284/2/4 285/2/4 286/2/4
f 286/2/4 285/2/4 287/2/4
f 287/2/4 285/2/4 288/2/4
f 286/1/4 287/1/4 290/1/4
f 288/2/4 289/2/4 291/2/4
f 290/1/4 287/1/4 291/1/4
f 287/2/4 288/2/4 291/2/4
f 290/2/4 291/2/4 292/2/4
f 291/2/4 289/2/4 292/2/4
f 292/2/4 289/2/4 293/2/4
f 293/2/4 289/2/4 294/2/4
f 290/2/4 292/2/4 295/2/4
f 292/1/4 293/1/4 296/1/4
f 295/2/4 292/2/4 296/2/4
f 296/1/4 293/1/4 297/1/4
f 300/5/5 299/5/5 298/5/5
f 301/5/5 299/5/5 300/5/5
f 307/2/5 303/2/5 302/2/5
f 308/2/5 303/2/5 307/2/5
f 309/1/5 304/1/5 303/1/5
f 309/2/5 303/2/5 308/2/5
f 310/2/5 305/2/5 304/2/5
f 310/1/5 304/1/5 309/1/5
f 311/2/5 305/2/5 310/2/5
f 312/2/5 305/2/5 311/2/5
f 314/2/5 308/2/5 307/2/5
f 314/2/5 307/2/5 306/2/5
f 315/5/5 309/5/5 308/5/5
f 315/2/5 308/2/5 314/2/5
f 315/5/5 310/5/5 309/5/5
f 315/5/5 311/5/5 310/5/5
f 316/5/5 311/5/5 315/5/5
f 317/5/5 311/5/5 316/5/5
f 318/2/5 313/2/5 312/2/5
f 318/5/5 311/5/5 317/5/5
f 318/2/5 312/2/5 311/2/5
f 319/2/5 313/2/5 318/2/5
f 320/4/5 316/4/5 315/4/5
f 320/5/5 315/5/5 314/5/5
f 321/4/5 316/4/5 320/4/5
f 322/5/5 319/5/5 318/5/5
f 322/5/5 318/5/5 317/5/5
f 323/5/5 319/5/5 322/5/5
f 324/2/5 314/2/5 306/2/5
f 325/5/5 320/5/5 314/5/5
f 325/2/5 314/2/5 324/2/5
f 326/5/5 320/5/5 325/5/5
f 329/5/5 319/5/5 323/5/5
f 330/1/5 325/1/5 324/1/5
f 331/5/5 327/5/5 326/5/5
f 331/1/5 325/1/5 330/1/5
f 331/5/5 326/5/5 325/5/5
f 332/5/5 327/5/5 331/5/5
f 333/5/5 327/5/5 332/5/5
f 334/5/5 329/5/5 328/5/5
f 335/5/5 319/5/5 329/5/5
f 335/5/5 329/5/5 334/5/5
f 336/2/5 313/2/5 319/2/5
f 336/5/5 319/5/5 335/5/5
f 337/2/5 331/2/5 330/2/5
f 337/2/5 332/2/5 331/2/5
f 338/2/5 332/2/5 337/2/5
f 339/5/5 335/5/5 334/5/5
f 339/2/5 332/2/5 338/2/5
f 339/5/5 333/5/5 332/5/5
f 339/5/5 334/5/5 333/5/5
f 340/5/5 335/5/5 339/5/5
f 341/2/5 336/2/5 335/2/5
f 341/5/5 335/5/5 340/5/5
f 342/2/5 313/2/5 336/2/5
f 342/2/5 336/2/5 341/2/5
f 343/2/5 313/2/5 342/2/5
f 344/2/5 339/2/5 338/2/5
f 345/1/5 340/1/5 339/1/5
f 345/2/5 339/2/5 344/2/5
f 346/2/5 341/2/5 340/2/5
f 346/1/5 340/1/5 345/1/5
f 346/2/5 342/2/5 341/2/5
f 347/2/5 342/2/5 346/2/5
f 351/5/5 349/5/5 348/5/5
f 352/5/5 349/5/5 351/5/5
f 354/5/5 351/5/5 350/5/5
f 355/5/5 351/5/5 354/5/5
f 356/5/5 353/5/5 352/5/5
f 357/5/5 353/5/5 356/5/5
f 358/5/5 356/5/5 355/5/5
f 359/5/5 356/5/5 358/5/5
f 360/2/6 361/2/6 365/2/6
f 365/2/6 361/2/6 366/2/6
f 362/2/6 363/2/6 367/2/6
f 367/2/6 363/2/6 368/2/6
f 364/1/6 365/1/6 370/1/6
f 370/1/6 365/1/6 371/1/6
f 368/1/6 369/1/6 372/1/6
f 372/1/6 369/1/6 373/1/6
f 374/2/6 375/2/6 378/2/6
f 378/2/6 375/2/6 379/2/6
f 376/1/6 377/1/6 382/1/6
f 382/1/6 377/1/6 383/1/6
f 379/2/6 380/2/6 384/2/6
f 384/2/6 380/2/6 385/2/6
f 381/1/6 382/1/6 386/1/6
f 386/1/6 382/1/6 387/1/6
f 388/2/6 389/2/6 392/2/6
f 392/2/6 389/2/6 393/2/6
f 393/2/6 389/2/6 394/2/6
f 389/1/6 390/1/6 395/1/6
f 394/2/6 389/2/6 395/2/6
f 395/1/6 390/1/6 396/1/6
f 391/2/6 392/2/6 399/2/6
f 399/2/6 392/2/6 400/2/6
f 396/2/6 397/2/6 401/2/6
f 401/2/6 397/2/6 402/2/6
f 398/1/6 399/1/6 404/1/6
f 404/1/6 399/1/6 405/1/6
f 404/2/6 405/2/6 406/2/6
f 406/2/6 405/2/6 407/2/6
f 402/2/6 403/2/6 408/2/6
f 406/1/6 407/1/6 409/1/6
f 409/1/6 407/1/6 410/1/6
f 408/2/6 403/2/6 411/2/6
f 409/2/6 410/2/6 412/2/6
f 412/2/6 410/2/6 413/2/6
f 411/2/6 403/2/6 416/2/6
f 416/2/6 403/2/6 417/2/6
f 413/2/6 414/2/6 418/2/6
f 418/2/6 414/2/6 419/2/6
f 415/1/6 416/1/6 422/1/6
f 422/1/6 416/1/6 423/1/6
f 420/2/6 421/2/6 424/2/6
f 421/2/6 422/2/6 424/2/6
f 419/2/6 420/2/6 424/2/6
f 424/2/6 422/2/6 425/2/6
f 426/2/6 427/2/6 431/2/6
f 427/1/6 428/1/6 432/1/6
f 431/2/6 427/2/6 432/2/6
f 428/2/6 429/2/6 433/2/6
f 432/1/6 428/1/6 433/1/6
f 433/2/6 429/2/6 434/2/6
f 430/2/6 431/2/6 436/2/6
f 434/2/6 435/2/6 437/2/6
f 437/2/6 435/2/6 438/2/6
f 437/1/6 438/1/6 439/1/6
f 439/1/6 438/1/6 440/1/6
f 430/2/6 436/2/6 441/2/6
f 441/2/6 436/2/6 442/2/6
f 439/2/6 440/2/6 446/2/6
f 446/2/6 440/2/6 447/2/6
f 442/2/6 443/2/6 448/2/6
f 443/2/6 444/2/6 448/2/6
f 444/1/6 445/1/6 449/1/6
f 448/2/6 444/2/6 449/2/6
f 445/2/6 446/2/6 450/2/6
f 449/1/6 445/1/6 450/1/6
f 450/2/6 446/2/6 451/2/6
f 452/2/6 453/2/6 456/2/6
f 453/1/6 454/1/6 456/1/6
f 454/2/6 455/2/6 457/2/6
f 456/1/6 454/1/6 457/1/6
f 456/2/6 457/2/6 458/2/6
f 457/2/6 455/2/6 458/2/6
f 458/2/6 455/2/6 459/2/6
f 452/2/6 456/2/6 460/2/6
f 456/2/6 458/2/6 460/2/6
f 460/2/6 458/2/6 461/2/6
f 458/1/6 459/1/6 462/1/6
f 461/2/6 458/2/6 462/2/6
f 459/2/6 455/2/6 463/2/6
f 462/1/6 459/1/6 463/1/6
f 460/1/6 461/1/6 464/1/6
f 461/2/6 462/2/6 465/2/6
f 464/1/6 461/1/6 465/1/6
f 462/2/6 463/2/6 465/2/6
f 460/1/6 464/1/6 466/1/6
f 464/2/6 465/2/6 467/2/6
f 466/1/6 464/1/6 467/1/6
f 465/2/6 463/2/6 468/2/6
f 467/2/6 465/2/6 468/2/6
f 463/2/6 455/2/6 468/2/6
