# MagicaVoxel @ Ephtracy

# group
o 

# material
mtllib oven.mtl
usemtl palette

# normals
vn -1 0 0
vn 1 0 0
vn 0 0 1
vn 0 0 -1
vn 0 -1 0
vn 0 1 0

# texcoords
vt 0.0214844 0.5
vt 0.0917969 0.5
vt 0.115234 0.5
vt 0.873047 0.5
vt 0.978516 0.5
vt 0.982422 0.5

# verts
v -0.4 0 0.1
v -0.4 0 -0.3
v -0.4 0 -0.4
v -0.4 0 -0.5
v -0.4 0.1 0.1
v -0.4 0.1 0
v -0.4 0.1 -0.2
v -0.4 0.1 -0.3
v -0.4 0.1 -0.4
v -0.4 0.1 -0.5
v -0.4 0.2 -0.1
v -0.4 0.2 -0.2
v -0.4 0.2 -0.3
v -0.4 0.2 -0.4
v -0.4 0.2 -0.5
v -0.4 0.3 0.1
v -0.4 0.3 0
v -0.4 0.3 -0.1
v -0.4 0.3 -0.2
v -0.4 0.3 -0.4
v -0.4 0.3 -0.5
v -0.4 0.4 0.1
v -0.4 0.4 0
v -0.4 0.4 -0.1
v -0.4 0.4 -0.4
v -0.4 0.4 -0.5
v -0.3 0 0.2
v -0.3 0 0.1
v -0.3 0.1 0.2
v -0.3 0.1 0.1
v -0.3 0.4 0.1
v -0.3 0.4 0
v -0.3 0.4 -0.1
v -0.3 0.4 -0.2
v -0.3 0.4 -0.3
v -0.3 0.4 -0.4
v -0.3 0.4 -0.5
v -0.3 0.5 0.1
v -0.3 0.5 0
v -0.3 0.5 -0.2
v -0.3 0.5 -0.3
v -0.3 0.5 -0.4
v -0.3 0.6 -0.4
v -0.3 0.6 -0.5
v -0.2 0.1 0.1
v -0.2 0.1 0
v -0.2 0.2 0.1
v -0.2 0.2 0
v -0.2 0.3 0.1
v -0.2 0.3 0
v -0.2 0.4 0.1
v -0.2 0.4 0
v -0.2 0.5 -0.3
v -0.2 0.5 -0.4
v -0.2 0.6 -0.3
v -0.2 0.6 -0.4
v -0.1 0.3 -0.1
v -0.1 0.3 -0.2
v -0.1 0.4 -0.1
v -0.1 0.4 -0.2
v -0.1 0.5 0.1
v -0.1 0.5 0
v -0.1 0.5 -0.2
v -0.1 0.5 -0.3
v -0.1 0.6 0.1
v -0.1 0.6 -0.2
v -0.1 0.6 -0.3
v 0 0.1 0
v 0 0.1 -0.1
v 0 0.2 0
v 0 0.2 -0.1
v 0.1 0.1 0.1
v 0.1 0.1 0
v 0.1 0.2 0.1
v 0.1 0.2 0
v 0.1 0.2 -0.1
v 0.1 0.3 0.1
v 0.1 0.3 0
v 0.1 0.3 -0.1
v 0.1 0.4 0.1
v 0.1 0.4 0
v 0.1 0.4 -0.1
v 0.1 0.5 0.1
v 0.1 0.5 0
v 0.1 0.5 -0.1
v 0.2 0.3 -0.1
v 0.2 0.3 -0.2
v 0.2 0.4 -0.1
v 0.2 0.4 -0.2
v 0.3 0.1 0.1
v 0.3 0.1 0
v 0.3 0.2 0.1
v 0.3 0.2 0
v 0.3 0.2 -0.1
v 0.3 0.3 0.1
v 0.3 0.3 0
v 0.3 0.3 -0.1
v 0.3 0.4 0.1
v 0.3 0.4 0
v 0.3 0.4 -0.1
v -0.3 0.1 0.1
v -0.3 0.1 0
v -0.3 0.2 0.1
v -0.3 0.2 0
v -0.3 0.2 -0.1
v -0.3 0.3 0.1
v -0.3 0.3 0
v -0.3 0.3 -0.1
v -0.3 0.4 0.1
v -0.3 0.4 0
v -0.3 0.4 -0.1
v -0.2 0.3 -0.1
v -0.2 0.3 -0.2
v -0.2 0.4 -0.1
v -0.2 0.4 -0.2
v -0.1 0.1 0.1
v -0.1 0.1 0
v -0.1 0.1 -0.1
v -0.1 0.2 0.1
v -0.1 0.2 0
v -0.1 0.2 -0.1
v -0.1 0.3 0.1
v -0.1 0.3 0
v -0.1 0.4 0.1
v -0.1 0.4 0
v -0.1 0.4 -0.1
v -0.1 0.5 0.1
v -0.1 0.5 0
v -0.1 0.5 -0.1
v 0.1 0.3 -0.1
v 0.1 0.3 -0.2
v 0.1 0.4 -0.1
v 0.1 0.4 -0.2
v 0.1 0.5 0.1
v 0.1 0.5 0
v 0.1 0.5 -0.2
v 0.1 0.5 -0.3
v 0.1 0.6 0.1
v 0.1 0.6 -0.2
v 0.1 0.6 -0.3
v 0.2 0.1 0.1
v 0.2 0.1 0
v 0.2 0.2 0.1
v 0.2 0.2 0
v 0.2 0.2 -0.1
v 0.2 0.3 0.1
v 0.2 0.3 0
v 0.2 0.3 -0.1
v 0.2 0.4 0.1
v 0.2 0.4 0
v 0.2 0.5 -0.3
v 0.2 0.5 -0.4
v 0.2 0.6 -0.3
v 0.2 0.6 -0.4
v 0.3 0 0.2
v 0.3 0 0.1
v 0.3 0.1 0.2
v 0.3 0.1 0.1
v 0.3 0.4 0.1
v 0.3 0.4 0
v 0.3 0.4 -0.1
v 0.3 0.4 -0.2
v 0.3 0.4 -0.3
v 0.3 0.4 -0.4
v 0.3 0.4 -0.5
v 0.3 0.5 0.1
v 0.3 0.5 0
v 0.3 0.5 -0.2
v 0.3 0.5 -0.3
v 0.3 0.5 -0.4
v 0.3 0.6 -0.4
v 0.3 0.6 -0.5
v 0.4 0 0.1
v 0.4 0 -0.3
v 0.4 0 -0.4
v 0.4 0 -0.5
v 0.4 0.1 0.1
v 0.4 0.1 0
v 0.4 0.1 -0.2
v 0.4 0.1 -0.3
v 0.4 0.1 -0.4
v 0.4 0.1 -0.5
v 0.4 0.2 -0.1
v 0.4 0.2 -0.2
v 0.4 0.2 -0.3
v 0.4 0.2 -0.4
v 0.4 0.2 -0.5
v 0.4 0.3 0.1
v 0.4 0.3 0
v 0.4 0.3 -0.1
v 0.4 0.3 -0.2
v 0.4 0.3 -0.4
v 0.4 0.3 -0.5
v 0.4 0.4 0.1
v 0.4 0.4 0
v 0.4 0.4 -0.1
v 0.4 0.4 -0.4
v 0.4 0.4 -0.5
v -0.3 0 0.2
v -0.3 0.1 0.2
v -0.2 0 0.2
v -0.2 0.1 0.2
v -0.1 0 0.2
v -0.1 0.1 0.2
v 0.1 0 0.2
v 0.1 0.1 0.2
v 0.2 0 0.2
v 0.2 0.1 0.2
v 0.3 0 0.2
v 0.3 0.1 0.2
v -0.4 0 0.1
v -0.4 0.1 0.1
v -0.4 0.3 0.1
v -0.4 0.4 0.1
v -0.3 0 0.1
v -0.3 0.1 0.1
v -0.3 0.2 0.1
v -0.3 0.3 0.1
v -0.3 0.4 0.1
v -0.3 0.5 0.1
v -0.2 0.1 0.1
v -0.2 0.2 0.1
v -0.2 0.3 0.1
v -0.2 0.4 0.1
v -0.2 0.5 0.1
v -0.1 0.1 0.1
v -0.1 0.2 0.1
v -0.1 0.3 0.1
v -0.1 0.4 0.1
v -0.1 0.5 0.1
v -0.1 0.6 0.1
v 0.1 0.1 0.1
v 0.1 0.2 0.1
v 0.1 0.3 0.1
v 0.1 0.4 0.1
v 0.1 0.5 0.1
v 0.1 0.6 0.1
v 0.2 0.1 0.1
v 0.2 0.2 0.1
v 0.2 0.3 0.1
v 0.2 0.4 0.1
v 0.2 0.5 0.1
v 0.3 0 0.1
v 0.3 0.1 0.1
v 0.3 0.2 0.1
v 0.3 0.3 0.1
v 0.3 0.4 0.1
v 0.3 0.5 0.1
v 0.4 0 0.1
v 0.4 0.1 0.1
v 0.4 0.3 0.1
v 0.4 0.4 0.1
v -0.3 0.1 0
v -0.3 0.2 0
v -0.2 0.1 0
v -0.2 0.2 0
v 0 0.1 0
v 0 0.2 0
v 0.1 0.1 0
v 0.1 0.2 0
v 0.2 0.1 0
v 0.2 0.2 0
v 0.3 0.1 0
v 0.3 0.2 0
v -0.3 0.2 -0.1
v -0.3 0.3 -0.1
v -0.3 0.4 -0.1
v -0.2 0.2 -0.1
v -0.2 0.3 -0.1
v -0.2 0.4 -0.1
v -0.1 0.1 -0.1
v -0.1 0.2 -0.1
v -0.1 0.3 -0.1
v -0.1 0.4 -0.1
v -0.1 0.5 -0.1
v 0 0.1 -0.1
v 0 0.2 -0.1
v 0 0.3 -0.1
v 0.1 0.2 -0.1
v 0.1 0.3 -0.1
v 0.1 0.4 -0.1
v 0.1 0.5 -0.1
v 0.2 0.2 -0.1
v 0.2 0.3 -0.1
v 0.2 0.4 -0.1
v 0.3 0.2 -0.1
v 0.3 0.3 -0.1
v 0.3 0.4 -0.1
v -0.2 0.3 -0.2
v -0.2 0.4 -0.2
v -0.1 0.3 -0.2
v -0.1 0.4 -0.2
v 0.1 0.3 -0.2
v 0.1 0.4 -0.2
v 0.2 0.3 -0.2
v 0.2 0.4 -0.2
v -0.2 0.5 -0.3
v -0.2 0.6 -0.3
v -0.1 0.5 -0.3
v -0.1 0.6 -0.3
v 0.1 0.5 -0.3
v 0.1 0.6 -0.3
v 0.2 0.5 -0.3
v 0.2 0.6 -0.3
v -0.3 0.5 -0.4
v -0.3 0.6 -0.4
v -0.2 0.5 -0.4
v -0.2 0.6 -0.4
v 0.2 0.5 -0.4
v 0.2 0.6 -0.4
v 0.3 0.5 -0.4
v 0.3 0.6 -0.4
v -0.3 0.2 0
v -0.3 0.3 0
v -0.2 0.3 0
v -0.2 0.4 0
v -0.1 0.2 0
v -0.1 0.3 0
v -0.1 0.4 0
v 0 0.2 0
v 0.1 0.2 0
v 0.1 0.3 0
v 0.1 0.4 0
v 0.2 0.2 0
v 0.2 0.3 0
v 0.2 0.4 0
v 0.3 0.2 0
v 0.3 0.3 0
v -0.4 0 -0.5
v -0.4 0.1 -0.5
v -0.4 0.2 -0.5
v -0.4 0.3 -0.5
v -0.4 0.4 -0.5
v -0.3 0.1 -0.5
v -0.3 0.2 -0.5
v -0.3 0.3 -0.5
v -0.3 0.4 -0.5
v -0.3 0.6 -0.5
v -0.2 0.1 -0.5
v -0.2 0.2 -0.5
v -0.2 0.3 -0.5
v -0.2 0.4 -0.5
v -0.1 0 -0.5
v -0.1 0.1 -0.5
v -0.1 0.2 -0.5
v -0.1 0.3 -0.5
v -0.1 0.4 -0.5
v -0.1 0.6 -0.5
v 0.1 0 -0.5
v 0.1 0.1 -0.5
v 0.1 0.2 -0.5
v 0.1 0.3 -0.5
v 0.1 0.4 -0.5
v 0.1 0.6 -0.5
v 0.2 0.1 -0.5
v 0.2 0.2 -0.5
v 0.2 0.3 -0.5
v 0.2 0.4 -0.5
v 0.3 0.1 -0.5
v 0.3 0.2 -0.5
v 0.3 0.3 -0.5
v 0.3 0.4 -0.5
v 0.3 0.6 -0.5
v 0.4 0 -0.5
v 0.4 0.1 -0.5
v 0.4 0.2 -0.5
v 0.4 0.3 -0.5
v 0.4 0.4 -0.5
v -0.3 0 0.2
v -0.2 0 0.2
v -0.1 0 0.2
v 0.1 0 0.2
v 0.2 0 0.2
v 0.3 0 0.2
v -0.4 0 0.1
v -0.3 0 0.1
v -0.2 0 0.1
v -0.1 0 0.1
v 0.1 0 0.1
v 0.2 0 0.1
v 0.3 0 0.1
v 0.4 0 0.1
v -0.3 0 0
v -0.2 0 0
v 0.2 0 0
v 0.3 0 0
v -0.2 0 -0.1
v -0.1 0 -0.1
v 0.1 0 -0.1
v 0.2 0 -0.1
v -0.3 0 -0.2
v -0.2 0 -0.2
v -0.1 0 -0.2
v 0.1 0 -0.2
v 0.2 0 -0.2
v 0.3 0 -0.2
v -0.4 0 -0.3
v -0.3 0 -0.3
v -0.2 0 -0.3
v 0.2 0 -0.3
v 0.3 0 -0.3
v 0.4 0 -0.3
v -0.4 0 -0.4
v -0.3 0 -0.4
v 0.3 0 -0.4
v 0.4 0 -0.4
v -0.4 0 -0.5
v -0.1 0 -0.5
v 0.1 0 -0.5
v 0.4 0 -0.5
v -0.3 0.2 0.1
v -0.2 0.2 0.1
v -0.1 0.2 0.1
v 0.1 0.2 0.1
v 0.2 0.2 0.1
v 0.3 0.2 0.1
v -0.3 0.2 0
v -0.2 0.2 0
v -0.1 0.2 0
v 0 0.2 0
v 0.1 0.2 0
v 0.2 0.2 0
v 0.3 0.2 0
v -0.3 0.4 0.1
v -0.2 0.4 0.1
v 0.2 0.4 0.1
v 0.3 0.4 0.1
v -0.3 0.4 0
v -0.2 0.4 0
v -0.1 0.4 0
v 0.1 0.4 0
v 0.2 0.4 0
v 0.3 0.4 0
v -0.3 0.4 -0.1
v -0.2 0.4 -0.1
v -0.1 0.4 -0.1
v 0.1 0.4 -0.1
v 0.2 0.4 -0.1
v 0.3 0.4 -0.1
v -0.2 0.4 -0.2
v -0.1 0.4 -0.2
v 0.1 0.4 -0.2
v 0.2 0.4 -0.2
v -0.1 0.5 0.1
v 0.1 0.5 0.1
v -0.1 0.5 0
v 0.1 0.5 0
v -0.1 0.5 -0.1
v 0.1 0.5 -0.1
v -0.3 0.1 0.2
v -0.2 0.1 0.2
v -0.1 0.1 0.2
v 0.1 0.1 0.2
v 0.2 0.1 0.2
v 0.3 0.1 0.2
v -0.3 0.1 0.1
v -0.2 0.1 0.1
v -0.1 0.1 0.1
v 0.1 0.1 0.1
v 0.2 0.1 0.1
v 0.3 0.1 0.1
v -0.3 0.1 0
v -0.2 0.1 0
v -0.1 0.1 0
v 0 0.1 0
v 0.1 0.1 0
v 0.2 0.1 0
v 0.3 0.1 0
v -0.1 0.1 -0.1
v 0 0.1 -0.1
v -0.3 0.2 0
v -0.1 0.2 0
v 0 0.2 0
v 0.1 0.2 0
v 0.2 0.2 0
v 0.3 0.2 0
v -0.3 0.2 -0.1
v -0.2 0.2 -0.1
v -0.1 0.2 -0.1
v 0 0.2 -0.1
v 0.1 0.2 -0.1
v 0.2 0.2 -0.1
v 0.3 0.2 -0.1
v -0.3 0.3 0.1
v -0.2 0.3 0.1
v -0.1 0.3 0.1
v 0.1 0.3 0.1
v 0.2 0.3 0.1
v 0.3 0.3 0.1
v -0.3 0.3 0
v -0.2 0.3 0
v -0.1 0.3 0
v 0.1 0.3 0
v 0.2 0.3 0
v 0.3 0.3 0
v -0.2 0.3 -0.1
v -0.1 0.3 -0.1
v 0.1 0.3 -0.1
v 0.2 0.3 -0.1
v -0.2 0.3 -0.2
v -0.1 0.3 -0.2
v 0.1 0.3 -0.2
v 0.2 0.3 -0.2
v -0.4 0.4 0.1
v -0.3 0.4 0.1
v 0.3 0.4 0.1
v 0.4 0.4 0.1
v -0.4 0.4 0
v -0.3 0.4 0
v 0.3 0.4 0
v 0.4 0.4 0
v -0.4 0.4 -0.1
v -0.3 0.4 -0.1
v 0.3 0.4 -0.1
v 0.4 0.4 -0.1
v -0.3 0.4 -0.2
v 0.3 0.4 -0.2
v -0.3 0.4 -0.3
v 0.3 0.4 -0.3
v -0.4 0.4 -0.4
v -0.3 0.4 -0.4
v 0.3 0.4 -0.4
v 0.4 0.4 -0.4
v -0.4 0.4 -0.5
v -0.3 0.4 -0.5
v 0.3 0.4 -0.5
v 0.4 0.4 -0.5
v -0.3 0.5 0.1
v -0.2 0.5 0.1
v -0.1 0.5 0.1
v 0.1 0.5 0.1
v 0.2 0.5 0.1
v 0.3 0.5 0.1
v -0.3 0.5 0
v -0.2 0.5 0
v -0.1 0.5 0
v 0.1 0.5 0
v 0.2 0.5 0
v 0.3 0.5 0
v -0.3 0.5 -0.2
v -0.2 0.5 -0.2
v -0.1 0.5 -0.2
v 0.1 0.5 -0.2
v 0.2 0.5 -0.2
v 0.3 0.5 -0.2
v -0.3 0.5 -0.3
v -0.2 0.5 -0.3
v -0.1 0.5 -0.3
v 0.1 0.5 -0.3
v 0.2 0.5 -0.3
v 0.3 0.5 -0.3
v -0.3 0.5 -0.4
v -0.2 0.5 -0.4
v 0.2 0.5 -0.4
v 0.3 0.5 -0.4
v -0.1 0.6 0.1
v 0.1 0.6 0.1
v -0.1 0.6 -0.2
v 0.1 0.6 -0.2
v -0.2 0.6 -0.3
v -0.1 0.6 -0.3
v 0.1 0.6 -0.3
v 0.2 0.6 -0.3
v -0.3 0.6 -0.4
v -0.2 0.6 -0.4
v -0.1 0.6 -0.4
v 0.1 0.6 -0.4
v 0.2 0.6 -0.4
v 0.3 0.6 -0.4
v -0.3 0.6 -0.5
v -0.1 0.6 -0.5
v 0.1 0.6 -0.5
v 0.3 0.6 -0.5

# faces
f 5/5/1 2/5/1 1/5/1
f 6/5/1 2/5/1 5/5/1
f 7/5/1 2/5/1 6/5/1
f 8/6/1 3/6/1 2/6/1
f 8/5/1 2/5/1 7/5/1
f 9/5/1 4/5/1 3/5/1
f 9/6/1 3/6/1 8/6/1
f 10/5/1 4/5/1 9/5/1
f 11/5/1 7/5/1 6/5/1
f 12/6/1 8/6/1 7/6/1
f 12/5/1 7/5/1 11/5/1
f 13/5/1 9/5/1 8/5/1
f 13/6/1 8/6/1 12/6/1
f 14/6/1 10/6/1 9/6/1
f 14/5/1 9/5/1 13/5/1
f 15/6/1 10/6/1 14/6/1
f 16/6/1 6/6/1 5/6/1
f 17/5/1 11/5/1 6/5/1
f 17/6/1 6/6/1 16/6/1
f 18/6/1 12/6/1 11/6/1
f 18/5/1 11/5/1 17/5/1
f 19/5/1 13/5/1 12/5/1
f 19/6/1 12/6/1 18/6/1
f 19/5/1 14/5/1 13/5/1
f 19/5/1 15/5/1 14/5/1
f 20/5/1 15/5/1 19/5/1
f 21/5/1 15/5/1 20/5/1
f 22/5/1 17/5/1 16/5/1
f 23/6/1 18/6/1 17/6/1
f 23/5/1 17/5/1 22/5/1
f 24/5/1 19/5/1 18/5/1
f 24/6/1 18/6/1 23/6/1
f 24/5/1 20/5/1 19/5/1
f 25/6/1 21/6/1 20/6/1
f 25/5/1 20/5/1 24/5/1
f 26/6/1 21/6/1 25/6/1
f 29/5/1 28/5/1 27/5/1
f 30/5/1 28/5/1 29/5/1
f 38/5/1 32/5/1 31/5/1
f 39/6/1 33/6/1 32/6/1
f 39/5/1 32/5/1 38/5/1
f 39/6/1 34/6/1 33/6/1
f 40/5/1 35/5/1 34/5/1
f 40/6/1 34/6/1 39/6/1
f 41/6/1 36/6/1 35/6/1
f 41/5/1 35/5/1 40/5/1
f 42/5/1 37/5/1 36/5/1
f 42/6/1 36/6/1 41/6/1
f 43/5/1 37/5/1 42/5/1
f 44/5/1 37/5/1 43/5/1
f 47/4/1 46/4/1 45/4/1
f 48/4/1 46/4/1 47/4/1
f 51/4/1 50/4/1 49/4/1
f 52/4/1 50/4/1 51/4/1
f 55/6/1 54/6/1 53/6/1
f 56/6/1 54/6/1 55/6/1
f 59/3/1 58/3/1 57/3/1
f 60/3/1 58/3/1 59/3/1
f 65/5/1 63/5/1 62/5/1
f 65/5/1 62/5/1 61/5/1
f 66/6/1 64/6/1 63/6/1
f 66/5/1 63/5/1 65/5/1
f 67/6/1 64/6/1 66/6/1
f 70/1/1 69/1/1 68/1/1
f 71/1/1 69/1/1 70/1/1
f 74/4/1 73/4/1 72/4/1
f 75/4/1 73/4/1 74/4/1
f 78/3/1 76/3/1 75/3/1
f 79/3/1 76/3/1 78/3/1
f 80/4/1 78/4/1 77/4/1
f 81/4/1 78/4/1 80/4/1
f 83/6/1 81/6/1 80/6/1
f 84/5/1 82/5/1 81/5/1
f 84/6/1 81/6/1 83/6/1
f 85/5/1 82/5/1 84/5/1
f 88/5/1 87/5/1 86/5/1
f 89/5/1 87/5/1 88/5/1
f 92/6/1 91/6/1 90/6/1
f 93/6/1 91/6/1 92/6/1
f 96/5/1 94/5/1 93/5/1
f 97/5/1 94/5/1 96/5/1
f 98/5/1 96/5/1 95/5/1
f 99/6/1 97/6/1 96/6/1
f 99/5/1 96/5/1 98/5/1
f 100/6/1 97/6/1 99/6/1
f 101/6/2 102/6/2 103/6/2
f 103/6/2 102/6/2 104/6/2
f 104/5/2 105/5/2 107/5/2
f 107/5/2 105/5/2 108/5/2
f 106/5/2 107/5/2 109/5/2
f 107/6/2 108/6/2 110/6/2
f 109/5/2 107/5/2 110/5/2
f 110/6/2 108/6/2 111/6/2
f 112/5/2 113/5/2 114/5/2
f 114/5/2 113/5/2 115/5/2
f 116/4/2 117/4/2 119/4/2
f 117/2/2 118/2/2 120/2/2
f 119/4/2 117/4/2 120/4/2
f 120/2/2 118/2/2 121/2/2
f 122/4/2 123/4/2 124/4/2
f 124/4/2 123/4/2 125/4/2
f 124/6/2 125/6/2 127/6/2
f 125/5/2 126/5/2 128/5/2
f 127/6/2 125/6/2 128/6/2
f 128/5/2 126/5/2 129/5/2
f 130/3/2 131/3/2 132/3/2
f 132/3/2 131/3/2 133/3/2
f 135/5/2 136/5/2 138/5/2
f 134/5/2 135/5/2 138/5/2
f 136/6/2 137/6/2 139/6/2
f 138/5/2 136/5/2 139/5/2
f 139/6/2 137/6/2 140/6/2
f 141/4/2 142/4/2 143/4/2
f 143/4/2 142/4/2 144/4/2
f 144/3/2 145/3/2 147/3/2
f 147/3/2 145/3/2 148/3/2
f 146/4/2 147/4/2 149/4/2
f 149/4/2 147/4/2 150/4/2
f 151/6/2 152/6/2 153/6/2
f 153/6/2 152/6/2 154/6/2
f 155/5/2 156/5/2 157/5/2
f 157/5/2 156/5/2 158/5/2
f 159/5/2 160/5/2 166/5/2
f 160/6/2 161/6/2 167/6/2
f 166/5/2 160/5/2 167/5/2
f 161/6/2 162/6/2 167/6/2
f 162/5/2 163/5/2 168/5/2
f 167/6/2 162/6/2 168/6/2
f 163/6/2 164/6/2 169/6/2
f 168/5/2 163/5/2 169/5/2
f 164/5/2 165/5/2 170/5/2
f 169/6/2 164/6/2 170/6/2
f 170/5/2 165/5/2 171/5/2
f 171/5/2 165/5/2 172/5/2
f 173/5/2 174/5/2 177/5/2
f 177/5/2 174/5/2 178/5/2
f 178/5/2 174/5/2 179/5/2
f 174/6/2 175/6/2 180/6/2
f 179/5/2 174/5/2 180/5/2
f 175/5/2 176/5/2 181/5/2
f 180/6/2 175/6/2 181/6/2
f 181/5/2 176/5/2 182/5/2
f 178/5/2 179/5/2 183/5/2
f 179/6/2 180/6/2 184/6/2
f 183/5/2 179/5/2 184/5/2
f 180/5/2 181/5/2 185/5/2
f 184/6/2 180/6/2 185/6/2
f 181/6/2 182/6/2 186/6/2
f 185/5/2 181/5/2 186/5/2
f 186/6/2 182/6/2 187/6/2
f 177/6/2 178/6/2 188/6/2
f 178/5/2 183/5/2 189/5/2
f 188/6/2 178/6/2 189/6/2
f 183/6/2 184/6/2 190/6/2
f 189/5/2 183/5/2 190/5/2
f 184/5/2 185/5/2 191/5/2
f 190/6/2 184/6/2 191/6/2
f 185/5/2 186/5/2 191/5/2
f 186/5/2 187/5/2 191/5/2
f 191/5/2 187/5/2 192/5/2
f 192/5/2 187/5/2 193/5/2
f 188/5/2 189/5/2 194/5/2
f 189/6/2 190/6/2 195/6/2
f 194/5/2 189/5/2 195/5/2
f 190/5/2 191/5/2 196/5/2
f 195/6/2 190/6/2 196/6/2
f 191/5/2 192/5/2 196/5/2
f 192/6/2 193/6/2 197/6/2
f 196/5/2 192/5/2 197/5/2
f 197/6/2 193/6/2 198/6/2
f 201/5/3 200/5/3 199/5/3
f 202/5/3 200/5/3 201/5/3
f 203/6/3 202/6/3 201/6/3
f 204/6/3 202/6/3 203/6/3
f 205/5/3 204/5/3 203/5/3
f 206/5/3 204/5/3 205/5/3
f 207/6/3 206/6/3 205/6/3
f 208/6/3 206/6/3 207/6/3
f 209/5/3 208/5/3 207/5/3
f 210/5/3 208/5/3 209/5/3
f 215/5/3 212/5/3 211/5/3
f 216/6/3 213/6/3 212/6/3
f 216/5/3 212/5/3 215/5/3
f 217/6/3 213/6/3 216/6/3
f 218/5/3 214/5/3 213/5/3
f 218/6/3 213/6/3 217/6/3
f 219/5/3 214/5/3 218/5/3
f 222/4/3 218/4/3 217/4/3
f 223/4/3 218/4/3 222/4/3
f 224/5/3 220/5/3 219/5/3
f 225/5/3 220/5/3 224/5/3
f 226/4/3 223/4/3 222/4/3
f 226/4/3 222/4/3 221/4/3
f 226/4/3 224/4/3 223/4/3
f 227/4/3 224/4/3 226/4/3
f 228/4/3 224/4/3 227/4/3
f 229/6/3 225/6/3 224/6/3
f 229/4/3 224/4/3 228/4/3
f 230/6/3 225/6/3 229/6/3
f 233/4/3 228/4/3 227/4/3
f 234/4/3 228/4/3 233/4/3
f 236/5/3 231/5/3 230/5/3
f 237/5/3 231/5/3 236/5/3
f 238/4/3 235/4/3 234/4/3
f 238/4/3 233/4/3 232/4/3
f 238/4/3 234/4/3 233/4/3
f 239/4/3 235/4/3 238/4/3
f 240/4/3 235/4/3 239/4/3
f 241/6/3 236/6/3 235/6/3
f 241/4/3 235/4/3 240/4/3
f 242/6/3 236/6/3 241/6/3
f 245/4/3 240/4/3 239/4/3
f 246/4/3 240/4/3 245/4/3
f 247/5/3 242/5/3 241/5/3
f 248/5/3 242/5/3 247/5/3
f 249/5/3 244/5/3 243/5/3
f 250/6/3 246/6/3 245/6/3
f 250/5/3 244/5/3 249/5/3
f 250/6/3 245/6/3 244/6/3
f 251/5/3 247/5/3 246/5/3
f 251/6/3 246/6/3 250/6/3
f 252/5/3 247/5/3 251/5/3
f 255/2/3 254/2/3 253/2/3
f 256/2/3 254/2/3 255/2/3
f 259/1/3 258/1/3 257/1/3
f 260/1/3 258/1/3 259/1/3
f 263/2/3 262/2/3 261/2/3
f 264/2/3 262/2/3 263/2/3
f 268/5/3 266/5/3 265/5/3
f 268/5/3 267/5/3 266/5/3
f 269/5/3 267/5/3 268/5/3
f 270/5/3 267/5/3 269/5/3
f 272/2/3 269/2/3 268/2/3
f 273/2/3 269/2/3 272/2/3
f 276/2/3 272/2/3 271/2/3
f 277/1/3 273/1/3 272/1/3
f 277/2/3 272/2/3 276/2/3
f 278/3/3 274/3/3 273/3/3
f 278/1/3 273/1/3 277/1/3
f 279/2/3 278/2/3 277/2/3
f 280/3/3 274/3/3 278/3/3
f 280/2/3 278/2/3 279/2/3
f 281/5/3 275/5/3 274/5/3
f 281/3/3 274/3/3 280/3/3
f 282/5/3 275/5/3 281/5/3
f 286/5/3 284/5/3 283/5/3
f 286/5/3 285/5/3 284/5/3
f 287/5/3 285/5/3 286/5/3
f 288/5/3 285/5/3 287/5/3
f 291/5/3 290/5/3 289/5/3
f 292/5/3 290/5/3 291/5/3
f 295/5/3 294/5/3 293/5/3
f 296/5/3 294/5/3 295/5/3
f 299/6/3 298/6/3 297/6/3
f 300/6/3 298/6/3 299/6/3
f 303/6/3 302/6/3 301/6/3
f 304/6/3 302/6/3 303/6/3
f 307/5/3 306/5/3 305/5/3
f 308/5/3 306/5/3 307/5/3
f 311/5/3 310/5/3 309/5/3
f 312/5/3 310/5/3 311/5/3
f 313/4/4 314/4/4 315/4/4
f 313/4/4 315/4/4 317/4/4
f 315/4/4 316/4/4 317/4/4
f 317/4/4 316/4/4 318/4/4
f 318/4/4 316/4/4 319/4/4
f 317/4/4 318/4/4 320/4/4
f 320/4/4 318/4/4 321/4/4
f 321/4/4 318/4/4 322/4/4
f 322/4/4 323/4/4 325/4/4
f 325/4/4 323/4/4 326/4/4
f 324/4/4 325/4/4 327/4/4
f 327/4/4 325/4/4 328/4/4
f 329/5/4 330/5/4 334/5/4
f 330/6/4 331/6/4 334/6/4
f 331/5/4 332/5/4 335/5/4
f 334/6/4 331/6/4 335/6/4
f 332/6/4 333/6/4 336/6/4
f 335/5/4 332/5/4 336/5/4
f 336/6/4 333/6/4 337/6/4
f 334/5/4 335/5/4 339/5/4
f 329/5/4 334/5/4 339/5/4
f 335/6/4 336/6/4 340/6/4
f 339/5/4 335/5/4 340/5/4
f 337/5/4 338/5/4 341/5/4
f 340/6/4 336/6/4 341/6/4
f 336/5/4 337/5/4 341/5/4
f 341/5/4 338/5/4 342/5/4
f 329/5/4 339/5/4 343/5/4
f 339/6/4 340/6/4 344/6/4
f 343/5/4 339/5/4 344/5/4
f 340/5/4 341/5/4 345/5/4
f 344/6/4 340/6/4 345/6/4
f 341/6/4 342/6/4 346/6/4
f 345/5/4 341/5/4 346/5/4
f 342/5/4 338/5/4 347/5/4
f 346/6/4 342/6/4 347/6/4
f 347/5/4 338/5/4 348/5/4
f 343/6/4 344/6/4 349/6/4
f 345/5/4 346/5/4 350/5/4
f 349/6/4 344/6/4 350/6/4
f 344/5/4 345/5/4 350/5/4
f 346/5/4 347/5/4 350/5/4
f 350/5/4 347/5/4 351/5/4
f 351/5/4 347/5/4 352/5/4
f 347/6/4 348/6/4 353/6/4
f 352/5/4 347/5/4 353/5/4
f 353/6/4 348/6/4 354/6/4
f 349/5/4 350/5/4 355/5/4
f 350/6/4 351/6/4 355/6/4
f 351/5/4 352/5/4 356/5/4
f 355/6/4 351/6/4 356/6/4
f 352/6/4 353/6/4 357/6/4
f 356/5/4 352/5/4 357/5/4
f 353/5/4 354/5/4 358/5/4
f 357/6/4 353/6/4 358/6/4
f 349/5/4 355/5/4 359/5/4
f 355/5/4 356/5/4 359/5/4
f 356/6/4 357/6/4 360/6/4
f 359/5/4 356/5/4 360/5/4
f 357/5/4 358/5/4 361/5/4
f 360/6/4 357/6/4 361/6/4
f 358/5/4 354/5/4 362/5/4
f 361/5/4 358/5/4 362/5/4
f 362/5/4 354/5/4 363/5/4
f 349/5/4 359/5/4 364/5/4
f 359/6/4 360/6/4 365/6/4
f 364/5/4 359/5/4 365/5/4
f 360/5/4 361/5/4 366/5/4
f 365/6/4 360/6/4 366/6/4
f 361/6/4 362/6/4 367/6/4
f 366/5/4 361/5/4 367/5/4
f 367/6/4 362/6/4 368/6/4
f 376/5/5 370/5/5 369/5/5
f 377/6/5 371/6/5 370/6/5
f 377/5/5 370/5/5 376/5/5
f 378/5/5 372/5/5 371/5/5
f 378/6/5 371/6/5 377/6/5
f 379/6/5 373/6/5 372/6/5
f 379/5/5 372/5/5 378/5/5
f 380/5/5 374/5/5 373/5/5
f 380/6/5 373/6/5 379/6/5
f 381/5/5 374/5/5 380/5/5
f 383/5/5 376/5/5 375/5/5
f 383/6/5 377/6/5 376/6/5
f 384/5/5 378/5/5 377/5/5
f 384/6/5 377/6/5 383/6/5
f 385/6/5 381/6/5 380/6/5
f 385/5/5 380/5/5 379/5/5
f 386/5/5 382/5/5 381/5/5
f 386/6/5 381/6/5 385/6/5
f 387/5/5 378/5/5 384/5/5
f 387/5/5 384/5/5 383/5/5
f 388/6/5 379/6/5 378/6/5
f 388/5/5 378/5/5 387/5/5
f 389/5/5 385/5/5 379/5/5
f 389/6/5 379/6/5 388/6/5
f 389/5/5 386/5/5 385/5/5
f 390/5/5 386/5/5 389/5/5
f 391/5/5 387/5/5 383/5/5
f 391/5/5 383/5/5 375/5/5
f 392/6/5 388/6/5 387/6/5
f 392/5/5 387/5/5 391/5/5
f 393/5/5 389/5/5 388/5/5
f 393/6/5 388/6/5 392/6/5
f 394/6/5 390/6/5 389/6/5
f 394/5/5 389/5/5 393/5/5
f 395/5/5 386/5/5 390/5/5
f 395/6/5 390/6/5 394/6/5
f 396/5/5 382/5/5 386/5/5
f 396/5/5 386/5/5 395/5/5
f 397/5/5 391/5/5 375/5/5
f 398/6/5 392/6/5 391/6/5
f 398/5/5 391/5/5 397/5/5
f 399/5/5 393/5/5 392/5/5
f 399/6/5 392/6/5 398/6/5
f 400/5/5 395/5/5 394/5/5
f 400/6/5 396/6/5 395/6/5
f 401/5/5 382/5/5 396/5/5
f 401/6/5 396/6/5 400/6/5
f 402/5/5 382/5/5 401/5/5
f 403/6/5 398/6/5 397/6/5
f 404/5/5 399/5/5 398/5/5
f 404/6/5 398/6/5 403/6/5
f 405/5/5 401/5/5 400/5/5
f 405/6/5 402/6/5 401/6/5
f 406/6/5 402/6/5 405/6/5
f 407/5/5 404/5/5 403/5/5
f 408/6/5 394/6/5 393/6/5
f 408/5/5 404/5/5 407/5/5
f 408/5/5 393/5/5 399/5/5
f 408/5/5 399/5/5 404/5/5
f 409/5/5 400/5/5 394/5/5
f 409/6/5 394/6/5 408/6/5
f 409/5/5 406/5/5 405/5/5
f 409/5/5 405/5/5 400/5/5
f 410/5/5 406/5/5 409/5/5
f 417/4/5 412/4/5 411/4/5
f 418/4/5 412/4/5 417/4/5
f 419/4/5 414/4/5 413/4/5
f 420/4/5 414/4/5 419/4/5
f 421/4/5 414/4/5 420/4/5
f 422/4/5 416/4/5 415/4/5
f 423/4/5 416/4/5 422/4/5
f 428/5/5 425/5/5 424/5/5
f 429/5/5 425/5/5 428/5/5
f 432/5/5 427/5/5 426/5/5
f 433/5/5 427/5/5 432/5/5
f 434/6/5 429/6/5 428/6/5
f 435/5/5 430/5/5 429/5/5
f 435/6/5 429/6/5 434/6/5
f 436/5/5 430/5/5 435/5/5
f 437/5/5 432/5/5 431/5/5
f 438/6/5 433/6/5 432/6/5
f 438/5/5 432/5/5 437/5/5
f 439/6/5 433/6/5 438/6/5
f 440/5/5 436/5/5 435/5/5
f 441/5/5 436/5/5 440/5/5
f 442/5/5 438/5/5 437/5/5
f 443/5/5 438/5/5 442/5/5
f 446/5/5 445/5/5 444/5/5
f 447/5/5 445/5/5 446/5/5
f 448/5/5 447/5/5 446/5/5
f 449/5/5 447/5/5 448/5/5
f 450/5/6 451/5/6 456/5/6
f 451/6/6 452/6/6 457/6/6
f 456/5/6 451/5/6 457/5/6
f 452/5/6 453/5/6 458/5/6
f 457/6/6 452/6/6 458/6/6
f 453/6/6 454/6/6 459/6/6
f 458/5/6 453/5/6 459/5/6
f 454/5/6 455/5/6 460/5/6
f 459/6/6 454/6/6 460/6/6
f 460/5/6 455/5/6 461/5/6
f 456/6/6 457/6/6 462/6/6
f 462/6/6 457/6/6 463/6/6
f 458/6/6 459/6/6 464/6/6
f 464/6/6 459/6/6 465/6/6
f 465/6/6 459/6/6 466/6/6
f 460/6/6 461/6/6 467/6/6
f 467/6/6 461/6/6 468/6/6
f 464/6/6 465/6/6 469/6/6
f 469/6/6 465/6/6 470/6/6
f 471/2/6 472/2/6 477/2/6
f 477/2/6 472/2/6 478/2/6
f 478/2/6 472/2/6 479/2/6
f 473/1/6 474/1/6 480/1/6
f 480/1/6 474/1/6 481/1/6
f 475/2/6 476/2/6 482/2/6
f 482/2/6 476/2/6 483/2/6
f 484/4/6 485/4/6 490/4/6
f 490/4/6 485/4/6 491/4/6
f 486/4/6 487/4/6 492/4/6
f 492/4/6 487/4/6 493/4/6
f 488/4/6 489/4/6 494/4/6
f 494/4/6 489/4/6 495/4/6
f 493/3/6 494/3/6 498/3/6
f 498/3/6 494/3/6 499/3/6
f 496/2/6 497/2/6 500/2/6
f 500/2/6 497/2/6 501/2/6
f 498/1/6 499/1/6 502/1/6
f 502/1/6 499/1/6 503/1/6
f 504/5/6 505/5/6 508/5/6
f 508/5/6 505/5/6 509/5/6
f 506/5/6 507/5/6 510/5/6
f 510/5/6 507/5/6 511/5/6
f 508/6/6 509/6/6 512/6/6
f 512/6/6 509/6/6 513/6/6
f 510/6/6 511/6/6 514/6/6
f 514/6/6 511/6/6 515/6/6
f 512/5/6 513/5/6 516/5/6
f 514/5/6 515/5/6 517/5/6
f 512/5/6 516/5/6 518/5/6
f 517/5/6 515/5/6 519/5/6
f 512/5/6 518/5/6 520/5/6
f 520/5/6 518/5/6 521/5/6
f 519/5/6 515/5/6 522/5/6
f 522/5/6 515/5/6 523/5/6
f 520/6/6 521/6/6 524/6/6
f 524/6/6 521/6/6 525/6/6
f 522/6/6 523/6/6 526/6/6
f 526/6/6 523/6/6 527/6/6
f 528/5/6 529/5/6 534/5/6
f 529/6/6 530/6/6 535/6/6
f 534/5/6 529/5/6 535/5/6
f 535/6/6 530/6/6 536/6/6
f 531/6/6 532/6/6 537/6/6
f 532/5/6 533/5/6 538/5/6
f 537/6/6 532/6/6 538/6/6
f 538/5/6 533/5/6 539/5/6
f 534/6/6 535/6/6 540/6/6
f 535/5/6 536/5/6 541/5/6
f 540/6/6 535/6/6 541/6/6
f 541/5/6 536/5/6 542/5/6
f 537/5/6 538/5/6 543/5/6
f 538/6/6 539/6/6 544/6/6
f 543/5/6 538/5/6 544/5/6
f 544/6/6 539/6/6 545/6/6
f 540/5/6 541/5/6 546/5/6
f 541/6/6 542/6/6 547/6/6
f 546/5/6 541/5/6 547/5/6
f 547/6/6 542/6/6 548/6/6
f 543/6/6 544/6/6 549/6/6
f 544/5/6 545/5/6 550/5/6
f 549/6/6 544/6/6 550/6/6
f 550/5/6 545/5/6 551/5/6
f 546/6/6 547/6/6 552/6/6
f 552/6/6 547/6/6 553/6/6
f 550/6/6 551/6/6 554/6/6
f 554/6/6 551/6/6 555/6/6
f 556/5/6 557/5/6 558/5/6
f 558/5/6 557/5/6 559/5/6
f 558/6/6 559/6/6 561/6/6
f 561/6/6 559/6/6 562/6/6
f 561/6/6 562/6/6 565/6/6
f 562/6/6 563/6/6 565/6/6
f 560/6/6 561/6/6 565/6/6
f 565/6/6 563/6/6 566/6/6
f 566/6/6 563/6/6 567/6/6
f 567/6/6 563/6/6 568/6/6
f 564/5/6 565/5/6 570/5/6
f 565/5/6 566/5/6 570/5/6
f 566/6/6 567/6/6 571/6/6
f 570/5/6 566/5/6 571/5/6
f 568/5/6 569/5/6 572/5/6
f 571/6/6 567/6/6 572/6/6
f 567/5/6 568/5/6 572/5/6
f 572/5/6 569/5/6 573/5/6
