# MagicaVoxel @ Ephtracy

# group
o 

# material
mtllib head.mtl
usemtl palette

# normals
vn -1 0 0
vn 1 0 0
vn 0 0 1
vn 0 0 -1
vn 0 -1 0
vn 0 1 0

# texcoords
vt 0.279297 0.5
vt 0.650391 0.5
vt 0.857422 0.5
vt 0.865234 0.5
vt 0.978516 0.5
vt 0.986328 0.5
vt 0.990234 0.5
vt 0.994141 0.5

# verts
v -0.8 1.3 0.2
v -0.8 1.3 0.1
v -0.8 1.4 0.2
v -0.8 1.4 0.1
v -0.8 1.5 0.2
v -0.8 1.5 0.1
v -0.7 0.8 0.2
v -0.7 0.8 0.1
v -0.7 1 0.2
v -0.7 1 0.1
v -0.7 1.2 0.2
v -0.7 1.2 0.1
v -0.7 1.3 0.2
v -0.7 1.3 0.1
v -0.6 1 0.2
v -0.6 1 0.1
v -0.6 1.2 0.2
v -0.6 1.2 0.1
v -0.5 0.8 0.2
v -0.5 0.8 0.1
v -0.5 0.9 0.2
v -0.5 0.9 0.1
v -0.4 0.6 0.3
v -0.4 0.6 0.2
v -0.4 0.6 0.1
v -0.4 0.7 0.3
v -0.4 0.7 0.2
v -0.4 0.7 0.1
v -0.4 0.8 0.2
v -0.4 0.8 0.1
v -0.3 0.4 0.3
v -0.3 0.4 0.2
v -0.3 0.4 0.1
v -0.3 0.4 0
v -0.3 0.5 0.4
v -0.3 0.5 0.3
v -0.3 0.5 0.2
v -0.3 0.5 0.1
v -0.3 0.5 0
v -0.3 0.6 0.4
v -0.3 0.6 0.3
v -0.3 0.6 0.2
v -0.3 0.6 0.1
v -0.3 0.6 0
v -0.3 0.7 0.4
v -0.3 0.7 0.3
v -0.3 0.7 0.2
v -0.3 0.7 0.1
v -0.3 0.7 0
v -0.3 0.7 -0.1
v -0.3 0.8 0.4
v -0.3 0.8 0.2
v -0.3 0.8 0.1
v -0.3 0.8 0
v -0.3 0.8 -0.1
v -0.3 0.9 0.1
v -0.3 0.9 0
v -0.3 1.3 0.2
v -0.3 1.3 0.1
v -0.3 1.4 0.2
v -0.3 1.4 0.1
v -0.2 0 0.5
v -0.2 0 -0.1
v -0.2 0.1 0.6
v -0.2 0.1 0.5
v -0.2 0.1 -0.1
v -0.2 0.1 -0.2
v -0.2 0.4 0.3
v -0.2 0.4 0.2
v -0.2 0.4 0.1
v -0.2 0.4 0
v -0.2 0.5 0.4
v -0.2 0.5 0.3
v -0.2 0.5 0.2
v -0.2 0.5 0.1
v -0.2 0.5 0
v -0.2 0.6 0.4
v -0.2 0.6 0
v -0.2 0.7 0.6
v -0.2 0.7 0.5
v -0.2 0.7 0.4
v -0.2 0.7 0
v -0.2 0.7 -0.1
v -0.2 0.7 -0.2
v -0.2 0.8 0.5
v -0.2 0.8 0.4
v -0.2 0.8 0.2
v -0.2 0.9 0.5
v -0.2 0.9 0.3
v -0.2 0.9 0.2
v -0.2 1 0.3
v -0.2 1 0.2
v -0.1 0 0.6
v -0.1 0 0.5
v -0.1 0 -0.1
v -0.1 0 -0.2
v -0.1 0.1 0.6
v -0.1 0.1 0.5
v -0.1 0.1 -0.1
v -0.1 0.1 -0.2
v -0.1 0.7 0.6
v -0.1 0.7 0.5
v -0.1 0.7 -0.1
v -0.1 0.7 -0.2
v -0.1 0.7 -0.3
v -0.1 0.8 0.6
v -0.1 0.8 0.5
v -0.1 0.8 0
v -0.1 0.8 -0.1
v -0.1 0.8 -0.2
v -0.1 0.8 -0.3
v -0.1 0.9 0
v -0.1 0.9 -0.1
v 0 0.8 -0.1
v 0 0.8 -0.2
v 0 0.9 0.1
v 0 0.9 0
v 0 0.9 -0.1
v 0 1 0.1
v 0 1 0
v 0 1 -0.1
v 0 1 -0.2
v -0.6 0.8 0.2
v -0.6 0.8 0.1
v -0.6 0.9 0.2
v -0.6 0.9 0.1
v -0.6 1.4 0.2
v -0.6 1.4 0.1
v -0.6 1.5 0.2
v -0.6 1.5 0.1
v -0.5 1.3 0.2
v -0.5 1.3 0.1
v -0.5 1.4 0.2
v -0.5 1.4 0.1
v -0.2 1.1 0.2
v -0.2 1.1 0.1
v -0.2 1.2 0.2
v -0.2 1.2 0.1
v -0.2 1.3 0.2
v -0.2 1.3 0.1
v -0.1 0.8 0.5
v -0.1 0.8 0.4
v -0.1 0.9 0.5
v -0.1 0.9 0.4
v -0.1 1.3 0.2
v -0.1 1.3 0.1
v -0.1 1.4 0.2
v -0.1 1.4 0.1
v 0 0.7 -0.2
v 0 0.7 -0.3
v 0 0.8 0
v 0 0.8 -0.1
v 0 0.8 -0.2
v 0 0.8 -0.3
v 0 0.9 0
v 0 0.9 -0.1
v 0 1 0.2
v 0 1 0.1
v 0 1.1 0.2
v 0 1.1 0.1
v 0.1 0.8 0.4
v 0.1 0.8 0.3
v 0.1 0.8 0.2
v 0.1 0.8 -0.1
v 0.1 0.8 -0.2
v 0.1 0.9 0.4
v 0.1 0.9 0.3
v 0.1 0.9 0.2
v 0.1 0.9 0
v 0.1 1 0.3
v 0.1 1 0
v 0.1 1 -0.1
v 0.1 1 -0.2
v 0.2 0.8 0.2
v 0.2 0.8 0.1
v 0.2 0.9 0.2
v 0.2 0.9 0.1
v 0.3 0.8 0.1
v 0.3 0.8 0
v 0.3 0.9 0.1
v 0.3 0.9 0
v 0.6 0 0.6
v 0.6 0 0.5
v 0.6 0 -0.1
v 0.6 0 -0.2
v 0.6 0.1 0.6
v 0.6 0.1 0.5
v 0.6 0.1 -0.1
v 0.6 0.1 -0.2
v 0.6 0.7 0.6
v 0.6 0.7 0.5
v 0.6 0.7 -0.1
v 0.6 0.7 -0.2
v 0.6 0.8 0.6
v 0.6 0.8 0.5
v 0.6 0.8 -0.1
v 0.6 0.8 -0.2
v 0.7 0 0.5
v 0.7 0 -0.1
v 0.7 0.1 0.6
v 0.7 0.1 0.5
v 0.7 0.1 -0.1
v 0.7 0.1 -0.2
v 0.7 0.7 0.6
v 0.7 0.7 0.5
v 0.7 0.7 -0.1
v 0.7 0.7 -0.2
v 0.7 0.8 0.5
v 0.7 0.8 -0.1
v -0.2 0.1 0.6
v -0.2 0.7 0.6
v -0.1 0 0.6
v -0.1 0.1 0.6
v -0.1 0.4 0.6
v -0.1 0.5 0.6
v -0.1 0.7 0.6
v -0.1 0.8 0.6
v 0 0.2 0.6
v 0 0.4 0.6
v 0.1 0.2 0.6
v 0.1 0.4 0.6
v 0.2 0.4 0.6
v 0.2 0.5 0.6
v 0.3 0.4 0.6
v 0.3 0.5 0.6
v 0.4 0.2 0.6
v 0.4 0.4 0.6
v 0.5 0.2 0.6
v 0.5 0.4 0.6
v 0.6 0 0.6
v 0.6 0.1 0.6
v 0.6 0.4 0.6
v 0.6 0.5 0.6
v 0.6 0.7 0.6
v 0.6 0.8 0.6
v 0.7 0.1 0.6
v 0.7 0.7 0.6
v -0.2 0 0.5
v -0.2 0.1 0.5
v -0.2 0.7 0.5
v -0.2 0.8 0.5
v -0.2 0.9 0.5
v -0.1 0 0.5
v -0.1 0.1 0.5
v -0.1 0.7 0.5
v -0.1 0.8 0.5
v -0.1 0.9 0.5
v 0.6 0 0.5
v 0.6 0.1 0.5
v 0.6 0.7 0.5
v 0.6 0.8 0.5
v 0.7 0 0.5
v 0.7 0.1 0.5
v 0.7 0.7 0.5
v 0.7 0.8 0.5
v -0.3 0.5 0.4
v -0.3 0.6 0.4
v -0.3 0.7 0.4
v -0.3 0.8 0.4
v -0.2 0.5 0.4
v -0.2 0.6 0.4
v -0.2 0.7 0.4
v -0.2 0.8 0.4
v -0.1 0.8 0.4
v -0.1 0.9 0.4
v 0 0.8 0.4
v 0 0.9 0.4
v 0.1 0.8 0.4
v 0.1 0.9 0.4
v -0.4 0.6 0.3
v -0.4 0.7 0.3
v -0.3 0.4 0.3
v -0.3 0.5 0.3
v -0.3 0.6 0.3
v -0.3 0.7 0.3
v -0.2 0.4 0.3
v -0.2 0.5 0.3
v -0.2 0.9 0.3
v -0.2 1 0.3
v -0.1 0.9 0.3
v -0.1 1 0.3
v 0 0.9 0.3
v 0.1 0.9 0.3
v 0.1 1 0.3
v -0.8 1.3 0.2
v -0.8 1.4 0.2
v -0.8 1.5 0.2
v -0.7 0.8 0.2
v -0.7 1 0.2
v -0.7 1.2 0.2
v -0.7 1.3 0.2
v -0.7 1.4 0.2
v -0.7 1.5 0.2
v -0.6 0.8 0.2
v -0.6 0.9 0.2
v -0.6 1 0.2
v -0.6 1.2 0.2
v -0.6 1.3 0.2
v -0.6 1.4 0.2
v -0.6 1.5 0.2
v -0.5 0.8 0.2
v -0.5 0.9 0.2
v -0.5 1.1 0.2
v -0.5 1.2 0.2
v -0.5 1.3 0.2
v -0.5 1.4 0.2
v -0.4 0.7 0.2
v -0.4 0.8 0.2
v -0.4 0.9 0.2
v -0.4 1.1 0.2
v -0.4 1.2 0.2
v -0.3 0.7 0.2
v -0.3 0.8 0.2
v -0.3 1.1 0.2
v -0.3 1.2 0.2
v -0.3 1.3 0.2
v -0.3 1.4 0.2
v -0.2 0.8 0.2
v -0.2 0.9 0.2
v -0.2 1 0.2
v -0.2 1.1 0.2
v -0.2 1.2 0.2
v -0.2 1.3 0.2
v -0.1 1 0.2
v -0.1 1.1 0.2
v -0.1 1.3 0.2
v -0.1 1.4 0.2
v 0 1 0.2
v 0 1.1 0.2
v 0.1 0.8 0.2
v 0.1 0.9 0.2
v 0.2 0.8 0.2
v 0.2 0.9 0.2
v -0.3 0.4 0.1
v -0.3 0.5 0.1
v -0.2 0.4 0.1
v -0.2 0.5 0.1
v 0.2 0.8 0.1
v 0.2 0.9 0.1
v 0.3 0.8 0.1
v 0.3 0.9 0.1
v 0 0.8 -0.1
v 0 0.9 -0.1
v 0 1 -0.1
v 0.1 0.8 -0.1
v 0.1 1 -0.1
v -0.3 0.4 0.2
v -0.3 0.5 0.2
v -0.2 0.4 0.2
v -0.2 0.5 0.2
v -0.8 1.3 0.1
v -0.8 1.4 0.1
v -0.8 1.5 0.1
v -0.7 0.8 0.1
v -0.7 1 0.1
v -0.7 1.2 0.1
v -0.7 1.3 0.1
v -0.7 1.4 0.1
v -0.7 1.5 0.1
v -0.6 0.8 0.1
v -0.6 0.9 0.1
v -0.6 1 0.1
v -0.6 1.2 0.1
v -0.6 1.3 0.1
v -0.6 1.4 0.1
v -0.6 1.5 0.1
v -0.5 0.8 0.1
v -0.5 0.9 0.1
v -0.5 1.1 0.1
v -0.5 1.2 0.1
v -0.5 1.3 0.1
v -0.5 1.4 0.1
v -0.4 0.6 0.1
v -0.4 0.7 0.1
v -0.4 0.8 0.1
v -0.4 0.9 0.1
v -0.4 1.1 0.1
v -0.4 1.2 0.1
v -0.3 0.6 0.1
v -0.3 0.7 0.1
v -0.3 0.8 0.1
v -0.3 0.9 0.1
v -0.3 1.1 0.1
v -0.3 1.2 0.1
v -0.3 1.3 0.1
v -0.3 1.4 0.1
v -0.2 1 0.1
v -0.2 1.1 0.1
v -0.2 1.2 0.1
v -0.2 1.3 0.1
v -0.1 0.9 0.1
v -0.1 1 0.1
v -0.1 1.1 0.1
v -0.1 1.3 0.1
v -0.1 1.4 0.1
v 0 0.9 0.1
v 0 1 0.1
v 0 1.1 0.1
v -0.3 0.4 0
v -0.3 0.5 0
v -0.3 0.6 0
v -0.3 0.7 0
v -0.3 0.8 0
v -0.3 0.9 0
v -0.2 0.4 0
v -0.2 0.5 0
v -0.2 0.6 0
v -0.2 0.7 0
v -0.2 0.8 0
v -0.1 0.8 0
v -0.1 0.9 0
v 0 0.8 0
v 0 0.9 0
v 0 1 0
v 0.1 0.9 0
v 0.1 1 0
v 0.2 0.8 0
v 0.2 0.9 0
v 0.3 0.8 0
v 0.3 0.9 0
v -0.3 0.7 -0.1
v -0.3 0.8 -0.1
v -0.2 0 -0.1
v -0.2 0.1 -0.1
v -0.2 0.7 -0.1
v -0.2 0.8 -0.1
v -0.1 0 -0.1
v -0.1 0.1 -0.1
v -0.1 0.7 -0.1
v -0.1 0.8 -0.1
v -0.1 0.9 -0.1
v 0 0.8 -0.1
v 0 0.9 -0.1
v 0.6 0 -0.1
v 0.6 0.1 -0.1
v 0.6 0.7 -0.1
v 0.6 0.8 -0.1
v 0.7 0 -0.1
v 0.7 0.1 -0.1
v 0.7 0.7 -0.1
v 0.7 0.8 -0.1
v -0.2 0.1 -0.2
v -0.2 0.7 -0.2
v -0.1 0 -0.2
v -0.1 0.1 -0.2
v -0.1 0.7 -0.2
v 0 0.7 -0.2
v 0 0.8 -0.2
v 0 1 -0.2
v 0.1 0.8 -0.2
v 0.1 1 -0.2
v 0.6 0 -0.2
v 0.6 0.1 -0.2
v 0.6 0.7 -0.2
v 0.6 0.8 -0.2
v 0.7 0.1 -0.2
v 0.7 0.7 -0.2
v -0.1 0.7 -0.3
v -0.1 0.8 -0.3
v 0 0.7 -0.3
v 0 0.8 -0.3
v -0.1 0 0.6
v 0.6 0 0.6
v -0.2 0 0.5
v -0.1 0 0.5
v 0.6 0 0.5
v 0.7 0 0.5
v -0.2 0 -0.1
v -0.1 0 -0.1
v 0.6 0 -0.1
v 0.7 0 -0.1
v -0.1 0 -0.2
v 0.6 0 -0.2
v -0.2 0.1 0.6
v -0.1 0.1 0.6
v 0.6 0.1 0.6
v 0.7 0.1 0.6
v -0.2 0.1 0.5
v -0.1 0.1 0.5
v 0.6 0.1 0.5
v 0.7 0.1 0.5
v -0.2 0.1 -0.1
v -0.1 0.1 -0.1
v 0.6 0.1 -0.1
v 0.7 0.1 -0.1
v -0.2 0.1 -0.2
v -0.1 0.1 -0.2
v 0.6 0.1 -0.2
v 0.7 0.1 -0.2
v -0.3 0.4 0.3
v -0.2 0.4 0.3
v -0.3 0.4 0.2
v -0.2 0.4 0.2
v -0.3 0.4 0.1
v -0.2 0.4 0.1
v -0.3 0.4 0
v -0.2 0.4 0
v -0.3 0.5 0.4
v -0.2 0.5 0.4
v -0.3 0.5 0.3
v -0.2 0.5 0.3
v -0.3 0.5 0.2
v -0.2 0.5 0.2
v -0.3 0.5 0.1
v -0.2 0.5 0.1
v -0.4 0.6 0.3
v -0.3 0.6 0.3
v -0.4 0.6 0.2
v -0.3 0.6 0.2
v -0.4 0.6 0.1
v -0.3 0.6 0.1
v -0.3 0.7 0
v -0.2 0.7 0
v -0.3 0.7 -0.1
v -0.2 0.7 -0.1
v -0.1 0.7 -0.2
v 0 0.7 -0.2
v -0.1 0.7 -0.3
v 0 0.7 -0.3
v -0.7 0.8 0.2
v -0.6 0.8 0.2
v -0.5 0.8 0.2
v -0.4 0.8 0.2
v -0.7 0.8 0.1
v -0.6 0.8 0.1
v -0.5 0.8 0.1
v -0.4 0.8 0.1
v -0.6 0.9 0.2
v -0.5 0.9 0.2
v -0.6 0.9 0.1
v -0.5 0.9 0.1
v -0.7 1.2 0.2
v -0.6 1.2 0.2
v -0.7 1.2 0.1
v -0.6 1.2 0.1
v -0.8 1.3 0.2
v -0.7 1.3 0.2
v -0.2 1.3 0.2
v -0.1 1.3 0.2
v -0.8 1.3 0.1
v -0.7 1.3 0.1
v -0.2 1.3 0.1
v -0.1 1.3 0.1
v -0.2 0.7 0.6
v -0.1 0.7 0.6
v 0.6 0.7 0.6
v 0.7 0.7 0.6
v -0.2 0.7 0.5
v -0.1 0.7 0.5
v 0.6 0.7 0.5
v 0.7 0.7 0.5
v -0.4 0.7 0.3
v -0.3 0.7 0.3
v -0.4 0.7 0.2
v -0.3 0.7 0.2
v -0.2 0.7 -0.1
v -0.1 0.7 -0.1
v 0.6 0.7 -0.1
v 0.7 0.7 -0.1
v -0.2 0.7 -0.2
v -0.1 0.7 -0.2
v 0.6 0.7 -0.2
v 0.7 0.7 -0.2
v -0.1 0.8 0.6
v 0.6 0.8 0.6
v -0.1 0.8 0.5
v 0.6 0.8 0.5
v 0.7 0.8 0.5
v -0.3 0.8 0.4
v -0.2 0.8 0.4
v -0.1 0.8 0.4
v 0 0.8 0.4
v 0.1 0.8 0.4
v 0.1 0.8 0.3
v -0.3 0.8 0.2
v -0.2 0.8 0.2
v 0.1 0.8 0.2
v 0.2 0.8 0.2
v 0.2 0.8 0.1
v 0.3 0.8 0.1
v -0.3 0.8 0
v -0.2 0.8 0
v -0.1 0.8 0
v 0 0.8 0
v 0.2 0.8 0
v 0.3 0.8 0
v -0.3 0.8 -0.1
v -0.2 0.8 -0.1
v -0.1 0.8 -0.1
v 0 0.8 -0.1
v 0.1 0.8 -0.1
v 0.6 0.8 -0.1
v 0.7 0.8 -0.1
v -0.1 0.8 -0.2
v 0 0.8 -0.2
v 0.1 0.8 -0.2
v 0.6 0.8 -0.2
v -0.1 0.8 -0.3
v 0 0.8 -0.3
v -0.2 0.9 0.5
v -0.1 0.9 0.5
v -0.1 0.9 0.4
v 0 0.9 0.4
v 0.1 0.9 0.4
v -0.2 0.9 0.3
v -0.1 0.9 0.3
v 0 0.9 0.3
v 0.1 0.9 0.3
v 0.1 0.9 0.2
v 0.2 0.9 0.2
v -0.3 0.9 0.1
v -0.1 0.9 0.1
v 0 0.9 0.1
v 0.2 0.9 0.1
v 0.3 0.9 0.1
v -0.3 0.9 0
v -0.1 0.9 0
v 0 0.9 0
v 0.1 0.9 0
v 0.2 0.9 0
v 0.3 0.9 0
v -0.1 0.9 -0.1
v 0 0.9 -0.1
v -0.2 1 0.3
v -0.1 1 0.3
v 0.1 1 0.3
v -0.7 1 0.2
v -0.6 1 0.2
v -0.2 1 0.2
v -0.1 1 0.2
v 0 1 0.2
v -0.7 1 0.1
v -0.6 1 0.1
v 0 1 0.1
v 0 1 0
v 0.1 1 0
v 0 1 -0.1
v 0.1 1 -0.1
v 0 1 -0.2
v 0.1 1 -0.2
v -0.2 1.1 0.2
v -0.1 1.1 0.2
v 0 1.1 0.2
v -0.2 1.1 0.1
v -0.1 1.1 0.1
v 0 1.1 0.1
v -0.5 1.3 0.2
v -0.3 1.3 0.2
v -0.5 1.3 0.1
v -0.3 1.3 0.1
v -0.6 1.4 0.2
v -0.5 1.4 0.2
v -0.3 1.4 0.2
v -0.1 1.4 0.2
v -0.6 1.4 0.1
v -0.5 1.4 0.1
v -0.3 1.4 0.1
v -0.1 1.4 0.1
v -0.8 1.5 0.2
v -0.7 1.5 0.2
v -0.6 1.5 0.2
v -0.8 1.5 0.1
v -0.7 1.5 0.1
v -0.6 1.5 0.1

# faces
f 3/8/1 2/8/1 1/8/1
f 4/8/1 2/8/1 3/8/1
f 5/7/1 4/7/1 3/7/1
f 6/7/1 4/7/1 5/7/1
f 9/8/1 8/8/1 7/8/1
f 10/8/1 8/8/1 9/8/1
f 13/8/1 12/8/1 11/8/1
f 14/8/1 12/8/1 13/8/1
f 17/8/1 16/8/1 15/8/1
f 18/8/1 16/8/1 17/8/1
f 21/6/1 20/6/1 19/6/1
f 22/6/1 20/6/1 21/6/1
f 26/4/1 24/4/1 23/4/1
f 27/3/1 25/3/1 24/3/1
f 27/4/1 24/4/1 26/4/1
f 28/3/1 25/3/1 27/3/1
f 29/6/1 28/6/1 27/6/1
f 30/6/1 28/6/1 29/6/1
f 36/3/1 32/3/1 31/3/1
f 37/3/1 32/3/1 36/3/1
f 38/3/1 34/3/1 33/3/1
f 39/3/1 34/3/1 38/3/1
f 40/3/1 37/3/1 36/3/1
f 40/3/1 36/3/1 35/3/1
f 40/3/1 38/3/1 37/3/1
f 41/3/1 38/3/1 40/3/1
f 42/3/1 38/3/1 41/3/1
f 43/4/1 39/4/1 38/4/1
f 43/3/1 38/3/1 42/3/1
f 44/4/1 39/4/1 43/4/1
f 45/4/1 41/4/1 40/4/1
f 46/4/1 41/4/1 45/4/1
f 48/3/1 44/3/1 43/3/1
f 49/3/1 44/3/1 48/3/1
f 51/3/1 47/3/1 46/3/1
f 51/3/1 46/3/1 45/3/1
f 52/3/1 47/3/1 51/3/1
f 53/3/1 49/3/1 48/3/1
f 53/3/1 50/3/1 49/3/1
f 54/3/1 50/3/1 53/3/1
f 55/3/1 50/3/1 54/3/1
f 56/3/1 54/3/1 53/3/1
f 57/3/1 54/3/1 56/3/1
f 60/8/1 59/8/1 58/8/1
f 61/8/1 59/8/1 60/8/1
f 65/2/1 63/2/1 62/2/1
f 66/2/1 63/2/1 65/2/1
f 68/2/1 65/2/1 64/2/1
f 68/2/1 67/2/1 66/2/1
f 68/2/1 66/2/1 65/2/1
f 69/2/1 67/2/1 68/2/1
f 70/2/1 67/2/1 69/2/1
f 71/2/1 67/2/1 70/2/1
f 72/2/1 68/2/1 64/2/1
f 73/2/1 68/2/1 72/2/1
f 74/2/1 70/2/1 69/2/1
f 75/2/1 70/2/1 74/2/1
f 76/2/1 67/2/1 71/2/1
f 77/2/1 72/2/1 64/2/1
f 78/2/1 67/2/1 76/2/1
f 79/2/1 77/2/1 64/2/1
f 80/2/1 77/2/1 79/2/1
f 81/2/1 77/2/1 80/2/1
f 82/2/1 67/2/1 78/2/1
f 83/2/1 67/2/1 82/2/1
f 84/2/1 67/2/1 83/2/1
f 85/2/1 81/2/1 80/2/1
f 86/2/1 81/2/1 85/2/1
f 88/3/1 86/3/1 85/3/1
f 88/3/1 87/3/1 86/3/1
f 89/3/1 87/3/1 88/3/1
f 90/3/1 87/3/1 89/3/1
f 91/4/1 90/4/1 89/4/1
f 92/4/1 90/4/1 91/4/1
f 97/2/1 94/2/1 93/2/1
f 98/2/1 94/2/1 97/2/1
f 99/2/1 96/2/1 95/2/1
f 100/2/1 96/2/1 99/2/1
f 106/2/1 102/2/1 101/2/1
f 107/2/1 102/2/1 106/2/1
f 109/2/1 104/2/1 103/2/1
f 110/4/1 105/4/1 104/4/1
f 110/2/1 104/2/1 109/2/1
f 111/4/1 105/4/1 110/4/1
f 112/3/1 109/3/1 108/3/1
f 113/3/1 109/3/1 112/3/1
f 118/3/1 115/3/1 114/3/1
f 119/3/1 117/3/1 116/3/1
f 120/3/1 117/3/1 119/3/1
f 121/3/1 115/3/1 118/3/1
f 122/3/1 115/3/1 121/3/1
f 123/8/2 124/8/2 125/8/2
f 125/8/2 124/8/2 126/8/2
f 127/8/2 128/8/2 129/8/2
f 129/8/2 128/8/2 130/8/2
f 131/8/2 132/8/2 133/8/2
f 133/8/2 132/8/2 134/8/2
f 135/6/2 136/6/2 137/6/2
f 137/6/2 136/6/2 138/6/2
f 137/8/2 138/8/2 139/8/2
f 139/8/2 138/8/2 140/8/2
f 141/3/2 142/3/2 143/3/2
f 143/3/2 142/3/2 144/3/2
f 145/8/2 146/8/2 147/8/2
f 147/8/2 146/8/2 148/8/2
f 149/4/2 150/4/2 153/4/2
f 153/4/2 150/4/2 154/4/2
f 151/3/2 152/3/2 155/3/2
f 155/3/2 152/3/2 156/3/2
f 157/3/2 158/3/2 159/3/2
f 159/3/2 158/3/2 160/3/2
f 161/4/2 162/4/2 166/4/2
f 162/3/2 163/3/2 167/3/2
f 166/4/2 162/4/2 167/4/2
f 167/3/2 163/3/2 168/3/2
f 168/3/2 169/3/2 170/3/2
f 167/3/2 168/3/2 170/3/2
f 170/3/2 169/3/2 171/3/2
f 164/3/2 165/3/2 172/3/2
f 172/3/2 165/3/2 173/3/2
f 174/3/2 175/3/2 176/3/2
f 176/3/2 175/3/2 177/3/2
f 178/4/2 179/4/2 180/4/2
f 180/4/2 179/4/2 181/4/2
f 182/2/2 183/2/2 186/2/2
f 186/2/2 183/2/2 187/2/2
f 184/2/2 185/2/2 188/2/2
f 188/2/2 185/2/2 189/2/2
f 190/2/2 191/2/2 194/2/2
f 194/2/2 191/2/2 195/2/2
f 192/2/2 193/2/2 196/2/2
f 196/2/2 193/2/2 197/2/2
f 198/2/2 199/2/2 201/2/2
f 201/2/2 199/2/2 202/2/2
f 200/2/2 201/2/2 204/2/2
f 202/2/2 203/2/2 204/2/2
f 201/2/2 202/2/2 204/2/2
f 204/2/2 203/2/2 205/2/2
f 205/2/2 203/2/2 206/2/2
f 206/2/2 203/2/2 207/2/2
f 205/2/2 206/2/2 208/2/2
f 208/2/2 206/2/2 209/2/2
f 213/2/3 211/2/3 210/2/3
f 214/2/3 211/2/3 213/2/3
f 215/2/3 211/2/3 214/2/3
f 216/2/3 211/2/3 215/2/3
f 218/2/3 213/2/3 212/2/3
f 218/2/3 214/2/3 213/2/3
f 219/8/3 215/8/3 214/8/3
f 219/2/3 214/2/3 218/2/3
f 220/2/3 218/2/3 212/2/3
f 220/1/3 219/1/3 218/1/3
f 221/8/3 215/8/3 219/8/3
f 221/1/3 219/1/3 220/1/3
f 222/2/3 221/2/3 220/2/3
f 222/8/3 215/8/3 221/8/3
f 223/2/3 217/2/3 216/2/3
f 223/8/3 215/8/3 222/8/3
f 223/2/3 216/2/3 215/2/3
f 224/2/3 222/2/3 220/2/3
f 224/2/3 223/2/3 222/2/3
f 225/2/3 217/2/3 223/2/3
f 225/2/3 223/2/3 224/2/3
f 226/2/3 224/2/3 220/2/3
f 226/2/3 220/2/3 212/2/3
f 227/8/3 225/8/3 224/8/3
f 227/2/3 224/2/3 226/2/3
f 228/2/3 226/2/3 212/2/3
f 228/1/3 227/1/3 226/1/3
f 229/8/3 225/8/3 227/8/3
f 229/1/3 227/1/3 228/1/3
f 230/2/3 228/2/3 212/2/3
f 230/2/3 229/2/3 228/2/3
f 231/2/3 229/2/3 230/2/3
f 232/8/3 225/8/3 229/8/3
f 232/2/3 229/2/3 231/2/3
f 233/2/3 217/2/3 225/2/3
f 233/8/3 225/8/3 232/8/3
f 234/2/3 217/2/3 233/2/3
f 235/2/3 217/2/3 234/2/3
f 236/2/3 232/2/3 231/2/3
f 236/2/3 234/2/3 233/2/3
f 236/2/3 233/2/3 232/2/3
f 237/2/3 234/2/3 236/2/3
f 243/2/3 239/2/3 238/2/3
f 244/2/3 239/2/3 243/2/3
f 245/2/3 241/2/3 240/2/3
f 246/3/3 242/3/3 241/3/3
f 246/2/3 241/2/3 245/2/3
f 247/3/3 242/3/3 246/3/3
f 252/2/3 249/2/3 248/2/3
f 253/2/3 249/2/3 252/2/3
f 254/2/3 251/2/3 250/2/3
f 255/2/3 251/2/3 254/2/3
f 260/3/3 257/3/3 256/3/3
f 261/4/3 258/4/3 257/4/3
f 261/3/3 257/3/3 260/3/3
f 262/3/3 259/3/3 258/3/3
f 262/4/3 258/4/3 261/4/3
f 263/3/3 259/3/3 262/3/3
f 266/3/3 265/3/3 264/3/3
f 267/3/3 265/3/3 266/3/3
f 268/4/3 267/4/3 266/4/3
f 269/4/3 267/4/3 268/4/3
f 274/4/3 271/4/3 270/4/3
f 275/4/3 271/4/3 274/4/3
f 276/3/3 273/3/3 272/3/3
f 277/3/3 273/3/3 276/3/3
f 280/4/3 279/4/3 278/4/3
f 281/4/3 279/4/3 280/4/3
f 282/3/3 281/3/3 280/3/3
f 283/3/3 281/3/3 282/3/3
f 284/3/3 281/3/3 283/3/3
f 291/8/3 286/8/3 285/8/3
f 292/7/3 287/7/3 286/7/3
f 292/8/3 286/8/3 291/8/3
f 293/7/3 287/7/3 292/7/3
f 294/8/3 289/8/3 288/8/3
f 295/8/3 289/8/3 294/8/3
f 296/8/3 289/8/3 295/8/3
f 297/8/3 291/8/3 290/8/3
f 298/7/3 292/7/3 291/7/3
f 298/8/3 291/8/3 297/8/3
f 299/8/3 293/8/3 292/8/3
f 299/7/3 292/7/3 298/7/3
f 300/8/3 293/8/3 299/8/3
f 302/8/3 296/8/3 295/8/3
f 302/8/3 297/8/3 296/8/3
f 303/8/3 297/8/3 302/8/3
f 304/7/3 298/7/3 297/7/3
f 304/8/3 297/8/3 303/8/3
f 305/8/3 299/8/3 298/8/3
f 305/7/3 298/7/3 304/7/3
f 306/8/3 299/8/3 305/8/3
f 308/6/3 302/6/3 301/6/3
f 309/5/3 303/5/3 302/5/3
f 309/6/3 302/6/3 308/6/3
f 310/8/3 304/8/3 303/8/3
f 310/5/3 303/5/3 309/5/3
f 310/8/3 305/8/3 304/8/3
f 311/8/3 305/8/3 310/8/3
f 312/6/3 308/6/3 307/6/3
f 313/5/3 309/5/3 308/5/3
f 313/6/3 308/6/3 312/6/3
f 313/5/3 310/5/3 309/5/3
f 313/5/3 311/5/3 310/5/3
f 314/5/3 311/5/3 313/5/3
f 315/8/3 305/8/3 311/8/3
f 315/5/3 311/5/3 314/5/3
f 316/8/3 305/8/3 315/8/3
f 318/5/3 314/5/3 313/5/3
f 319/5/3 314/5/3 318/5/3
f 320/5/3 314/5/3 319/5/3
f 321/6/3 315/6/3 314/6/3
f 321/5/3 314/5/3 320/5/3
f 322/8/3 317/8/3 316/8/3
f 322/6/3 315/6/3 321/6/3
f 322/8/3 316/8/3 315/8/3
f 323/8/3 317/8/3 322/8/3
f 324/6/3 321/6/3 320/6/3
f 325/6/3 321/6/3 324/6/3
f 326/8/3 317/8/3 323/8/3
f 327/8/3 317/8/3 326/8/3
f 328/3/3 325/3/3 324/3/3
f 329/3/3 325/3/3 328/3/3
f 332/3/3 331/3/3 330/3/3
f 333/3/3 331/3/3 332/3/3
f 336/3/3 335/3/3 334/3/3
f 337/3/3 335/3/3 336/3/3
f 340/4/3 339/4/3 338/4/3
f 341/4/3 339/4/3 340/4/3
f 345/3/3 343/3/3 342/3/3
f 345/3/3 344/3/3 343/3/3
f 346/3/3 344/3/3 345/3/3
f 347/3/4 348/3/4 349/3/4
f 349/3/4 348/3/4 350/3/4
f 351/8/4 352/8/4 357/8/4
f 352/7/4 353/7/4 358/7/4
f 357/8/4 352/8/4 358/8/4
f 358/7/4 353/7/4 359/7/4
f 354/8/4 355/8/4 360/8/4
f 360/8/4 355/8/4 361/8/4
f 361/8/4 355/8/4 362/8/4
f 356/8/4 357/8/4 363/8/4
f 357/7/4 358/7/4 364/7/4
f 363/8/4 357/8/4 364/8/4
f 358/8/4 359/8/4 365/8/4
f 364/7/4 358/7/4 365/7/4
f 365/8/4 359/8/4 366/8/4
f 361/8/4 362/8/4 368/8/4
f 362/8/4 363/8/4 368/8/4
f 368/8/4 363/8/4 369/8/4
f 363/7/4 364/7/4 370/7/4
f 369/8/4 363/8/4 370/8/4
f 364/8/4 365/8/4 371/8/4
f 370/7/4 364/7/4 371/7/4
f 371/8/4 365/8/4 372/8/4
f 367/6/4 368/6/4 375/6/4
f 368/5/4 369/5/4 376/5/4
f 375/6/4 368/6/4 376/6/4
f 369/8/4 370/8/4 377/8/4
f 376/5/4 369/5/4 377/5/4
f 370/8/4 371/8/4 377/8/4
f 377/8/4 371/8/4 378/8/4
f 373/3/4 374/3/4 379/3/4
f 374/6/4 375/6/4 380/6/4
f 379/3/4 374/3/4 380/3/4
f 375/5/4 376/5/4 381/5/4
f 380/6/4 375/6/4 381/6/4
f 376/5/4 377/5/4 381/5/4
f 377/5/4 378/5/4 381/5/4
f 381/5/4 378/5/4 382/5/4
f 382/5/4 378/5/4 383/5/4
f 378/8/4 371/8/4 384/8/4
f 383/5/4 378/5/4 384/5/4
f 384/8/4 371/8/4 385/8/4
f 382/5/4 383/5/4 387/5/4
f 383/6/4 384/6/4 388/6/4
f 387/5/4 383/5/4 388/5/4
f 385/8/4 386/8/4 389/8/4
f 388/6/4 384/6/4 389/6/4
f 384/8/4 385/8/4 389/8/4
f 389/8/4 386/8/4 390/8/4
f 382/5/4 387/5/4 391/5/4
f 387/6/4 388/6/4 392/6/4
f 391/5/4 387/5/4 392/5/4
f 392/6/4 388/6/4 393/6/4
f 390/8/4 386/8/4 394/8/4
f 394/8/4 386/8/4 395/8/4
f 391/6/4 392/6/4 396/6/4
f 392/3/4 393/3/4 397/3/4
f 396/6/4 392/6/4 397/6/4
f 397/3/4 393/3/4 398/3/4
f 399/3/4 400/3/4 405/3/4
f 400/4/4 401/4/4 406/4/4
f 405/3/4 400/3/4 406/3/4
f 401/3/4 402/3/4 407/3/4
f 406/4/4 401/4/4 407/4/4
f 407/3/4 402/3/4 408/3/4
f 403/3/4 404/3/4 409/3/4
f 409/3/4 404/3/4 410/3/4
f 410/3/4 404/3/4 411/3/4
f 412/3/4 413/3/4 415/3/4
f 413/3/4 414/3/4 415/3/4
f 415/3/4 414/3/4 416/3/4
f 412/3/4 415/3/4 417/3/4
f 417/3/4 415/3/4 418/3/4
f 417/4/4 418/4/4 419/4/4
f 419/4/4 418/4/4 420/4/4
f 421/3/4 422/3/4 425/3/4
f 425/3/4 422/3/4 426/3/4
f 423/2/4 424/2/4 427/2/4
f 427/2/4 424/2/4 428/2/4
f 425/2/4 426/2/4 429/2/4
f 429/2/4 426/2/4 430/2/4
f 430/3/4 431/3/4 432/3/4
f 432/3/4 431/3/4 433/3/4
f 434/2/4 435/2/4 438/2/4
f 438/2/4 435/2/4 439/2/4
f 436/2/4 437/2/4 440/2/4
f 440/2/4 437/2/4 441/2/4
f 442/2/4 443/2/4 445/2/4
f 445/2/4 443/2/4 446/2/4
f 444/2/4 445/2/4 447/2/4
f 445/2/4 446/2/4 447/2/4
f 447/2/4 448/2/4 450/2/4
f 448/3/4 449/3/4 450/3/4
f 450/3/4 449/3/4 451/3/4
f 444/2/4 447/2/4 452/2/4
f 447/2/4 450/2/4 452/2/4
f 452/2/4 450/2/4 453/2/4
f 453/2/4 450/2/4 454/2/4
f 454/2/4 450/2/4 455/2/4
f 453/2/4 454/2/4 456/2/4
f 456/2/4 454/2/4 457/2/4
f 458/4/4 459/4/4 460/4/4
f 460/4/4 459/4/4 461/4/4
f 465/2/5 463/2/5 462/2/5
f 466/2/5 463/2/5 465/2/5
f 468/2/5 465/2/5 464/2/5
f 468/2/5 467/2/5 466/2/5
f 468/2/5 466/2/5 465/2/5
f 469/2/5 467/2/5 468/2/5
f 470/2/5 467/2/5 469/2/5
f 471/2/5 467/2/5 470/2/5
f 472/2/5 470/2/5 469/2/5
f 473/2/5 470/2/5 472/2/5
f 478/2/5 475/2/5 474/2/5
f 479/2/5 475/2/5 478/2/5
f 480/2/5 477/2/5 476/2/5
f 481/2/5 477/2/5 480/2/5
f 486/2/5 483/2/5 482/2/5
f 487/2/5 483/2/5 486/2/5
f 488/2/5 485/2/5 484/2/5
f 489/2/5 485/2/5 488/2/5
f 492/3/5 491/3/5 490/3/5
f 493/3/5 491/3/5 492/3/5
f 496/3/5 495/3/5 494/3/5
f 497/3/5 495/3/5 496/3/5
f 500/3/5 499/3/5 498/3/5
f 501/3/5 499/3/5 500/3/5
f 504/3/5 503/3/5 502/3/5
f 505/3/5 503/3/5 504/3/5
f 508/4/5 507/4/5 506/4/5
f 509/4/5 507/4/5 508/4/5
f 510/3/5 509/3/5 508/3/5
f 511/3/5 509/3/5 510/3/5
f 514/3/5 513/3/5 512/3/5
f 515/3/5 513/3/5 514/3/5
f 518/4/5 517/4/5 516/4/5
f 519/4/5 517/4/5 518/4/5
f 524/8/5 521/8/5 520/8/5
f 525/8/5 521/8/5 524/8/5
f 526/6/5 523/6/5 522/6/5
f 527/6/5 523/6/5 526/6/5
f 530/8/5 529/8/5 528/8/5
f 531/8/5 529/8/5 530/8/5
f 534/8/5 533/8/5 532/8/5
f 535/8/5 533/8/5 534/8/5
f 540/8/5 537/8/5 536/8/5
f 541/8/5 537/8/5 540/8/5
f 542/8/5 539/8/5 538/8/5
f 543/8/5 539/8/5 542/8/5
f 544/2/6 545/2/6 548/2/6
f 548/2/6 545/2/6 549/2/6
f 546/2/6 547/2/6 550/2/6
f 550/2/6 547/2/6 551/2/6
f 552/4/6 553/4/6 554/4/6
f 554/4/6 553/4/6 555/4/6
f 556/2/6 557/2/6 560/2/6
f 560/2/6 557/2/6 561/2/6
f 558/2/6 559/2/6 562/2/6
f 562/2/6 559/2/6 563/2/6
f 564/2/6 565/2/6 566/2/6
f 566/2/6 565/2/6 567/2/6
f 566/2/6 567/2/6 571/2/6
f 567/2/6 568/2/6 571/2/6
f 571/2/6 568/2/6 572/2/6
f 572/2/6 568/2/6 573/2/6
f 573/2/6 568/2/6 574/2/6
f 569/3/6 570/3/6 575/3/6
f 575/3/6 570/3/6 576/3/6
f 574/2/6 568/2/6 577/2/6
f 577/2/6 568/2/6 578/2/6
f 578/2/6 568/2/6 579/2/6
f 579/2/6 568/2/6 580/2/6
f 580/2/6 568/2/6 586/2/6
f 581/3/6 582/3/6 587/3/6
f 582/2/6 583/2/6 588/2/6
f 587/3/6 582/3/6 588/3/6
f 588/2/6 583/2/6 589/2/6
f 584/2/6 585/2/6 590/2/6
f 585/2/6 586/2/6 590/2/6
f 590/2/6 586/2/6 591/2/6
f 586/2/6 568/2/6 592/2/6
f 591/2/6 586/2/6 592/2/6
f 592/2/6 568/2/6 593/2/6
f 589/2/6 590/2/6 594/2/6
f 594/2/6 590/2/6 595/2/6
f 591/2/6 592/2/6 596/2/6
f 596/2/6 592/2/6 597/2/6
f 594/4/6 595/4/6 598/4/6
f 598/4/6 595/4/6 599/4/6
f 600/3/6 601/3/6 602/3/6
f 600/3/6 602/3/6 605/3/6
f 602/3/6 603/3/6 605/3/6
f 605/3/6 603/3/6 606/3/6
f 603/4/6 604/4/6 607/4/6
f 606/3/6 603/3/6 607/3/6
f 607/4/6 604/4/6 608/4/6
f 609/3/6 610/3/6 614/3/6
f 611/3/6 612/3/6 616/3/6
f 612/4/6 613/4/6 617/4/6
f 616/3/6 612/3/6 617/3/6
f 617/4/6 613/4/6 618/4/6
f 609/3/6 614/3/6 619/3/6
f 614/4/6 615/4/6 620/4/6
f 619/3/6 614/3/6 620/3/6
f 620/4/6 615/4/6 621/4/6
f 617/3/6 618/3/6 622/3/6
f 622/3/6 618/3/6 623/3/6
f 624/4/6 625/4/6 629/4/6
f 625/3/6 626/3/6 630/3/6
f 629/4/6 625/4/6 630/4/6
f 630/3/6 626/3/6 631/3/6
f 627/8/6 628/8/6 632/8/6
f 632/8/6 628/8/6 633/8/6
f 631/3/6 626/3/6 634/3/6
f 634/3/6 626/3/6 635/3/6
f 635/3/6 626/3/6 636/3/6
f 637/3/6 638/3/6 639/3/6
f 639/3/6 638/3/6 640/3/6
f 641/6/6 642/6/6 644/6/6
f 642/3/6 643/3/6 645/3/6
f 644/6/6 642/6/6 645/6/6
f 645/3/6 643/3/6 646/3/6
f 647/8/6 648/8/6 649/8/6
f 649/8/6 648/8/6 650/8/6
f 651/8/6 652/8/6 655/8/6
f 655/8/6 652/8/6 656/8/6
f 653/8/6 654/8/6 657/8/6
f 657/8/6 654/8/6 658/8/6
f 659/7/6 660/7/6 662/7/6
f 660/8/6 661/8/6 663/8/6
f 662/7/6 660/7/6 663/7/6
f 663/8/6 661/8/6 664/8/6
