# MagicaVoxel @ Ephtracy

# group
o 

# material
mtllib Body.mtl
usemtl palette

# normals
vn -1 0 0
vn 1 0 0
vn 0 0 1
vn 0 0 -1
vn 0 -1 0
vn 0 1 0

# texcoords
vt 0.0332031 0.5
vt 0.0449219 0.5
vt 0.533203 0.5
vt 0.701172 0.5
vt 0.986328 0.5
vt 0.994141 0.5

# verts
v -0.6 0.3 0.5
v -0.6 0.3 -0.3
v -0.6 0.4 0.6
v -0.6 0.4 0.5
v -0.6 0.4 -0.3
v -0.6 0.4 -0.4
v -0.6 1.4 0.6
v -0.6 1.4 0.5
v -0.6 1.4 -0.3
v -0.6 1.4 -0.4
v -0.6 1.5 0.5
v -0.6 1.5 -0.3
v -0.5 0 0.5
v -0.5 0 -0.4
v -0.5 0.1 0.5
v -0.5 0.1 -0.4
v -0.5 0.2 0.5
v -0.5 0.2 -0.4
v -0.5 0.3 0.6
v -0.5 0.3 0.5
v -0.5 0.3 -0.3
v -0.5 0.3 -0.4
v -0.5 0.4 0.6
v -0.5 0.4 0.5
v -0.5 0.4 -0.3
v -0.5 0.4 -0.4
v -0.5 0.4 -0.5
v -0.5 1.4 0.6
v -0.5 1.4 0.5
v -0.5 1.4 -0.3
v -0.5 1.4 -0.4
v -0.5 1.4 -0.5
v -0.5 1.5 0.6
v -0.5 1.5 0.5
v -0.5 1.5 -0.3
v -0.5 1.5 -0.4
v 0.1 0.4 0.6
v 0.1 0.4 0.5
v 0.1 1.5 0.6
v 0.1 1.5 0.5
v 0.2 0.3 0.6
v 0.2 0.3 0.5
v 0.2 0.4 0.6
v 0.2 0.4 0.5
v -0.2 0.3 0.6
v -0.2 0.3 0.5
v -0.2 0.4 0.6
v -0.2 0.4 0.5
v -0.1 0.4 0.6
v -0.1 0.4 0.5
v -0.1 1.5 0.6
v -0.1 1.5 0.5
v 0.5 0 0.5
v 0.5 0 -0.4
v 0.5 0.1 0.5
v 0.5 0.1 -0.4
v 0.5 0.2 0.5
v 0.5 0.2 -0.4
v 0.5 0.3 0.6
v 0.5 0.3 0.5
v 0.5 0.3 -0.3
v 0.5 0.3 -0.4
v 0.5 0.4 0.6
v 0.5 0.4 0.5
v 0.5 0.4 -0.3
v 0.5 0.4 -0.4
v 0.5 0.4 -0.5
v 0.5 1.4 0.6
v 0.5 1.4 0.5
v 0.5 1.4 -0.3
v 0.5 1.4 -0.4
v 0.5 1.4 -0.5
v 0.5 1.5 0.6
v 0.5 1.5 0.5
v 0.5 1.5 -0.3
v 0.5 1.5 -0.4
v 0.6 0.3 0.5
v 0.6 0.3 -0.3
v 0.6 0.4 0.6
v 0.6 0.4 0.5
v 0.6 0.4 -0.3
v 0.6 0.4 -0.4
v 0.6 1.4 0.6
v 0.6 1.4 0.5
v 0.6 1.4 -0.3
v 0.6 1.4 -0.4
v 0.6 1.5 0.5
v 0.6 1.5 -0.3
v -0.6 0.4 0.6
v -0.6 1.4 0.6
v -0.5 0.3 0.6
v -0.5 0.4 0.6
v -0.5 1.4 0.6
v -0.5 1.5 0.6
v -0.2 0.3 0.6
v -0.2 0.4 0.6
v -0.1 0.4 0.6
v -0.1 1.5 0.6
v 0.1 0.4 0.6
v 0.1 1.5 0.6
v 0.2 0.3 0.6
v 0.2 0.4 0.6
v 0.5 0.3 0.6
v 0.5 0.4 0.6
v 0.5 1.4 0.6
v 0.5 1.5 0.6
v 0.6 0.4 0.6
v 0.6 1.4 0.6
v -0.6 0.3 0.5
v -0.6 0.4 0.5
v -0.6 1.4 0.5
v -0.6 1.5 0.5
v -0.5 0 0.5
v -0.5 0.1 0.5
v -0.5 0.2 0.5
v -0.5 0.3 0.5
v -0.5 0.4 0.5
v -0.5 1.4 0.5
v -0.5 1.5 0.5
v -0.2 0.3 0.5
v -0.2 0.4 0.5
v -0.1 0.1 0.5
v -0.1 0.2 0.5
v -0.1 0.4 0.5
v -0.1 1.5 0.5
v 0.1 0.1 0.5
v 0.1 0.2 0.5
v 0.1 0.4 0.5
v 0.1 1.5 0.5
v 0.2 0.3 0.5
v 0.2 0.4 0.5
v 0.5 0 0.5
v 0.5 0.1 0.5
v 0.5 0.2 0.5
v 0.5 0.3 0.5
v 0.5 0.4 0.5
v 0.5 1.4 0.5
v 0.5 1.5 0.5
v 0.6 0.3 0.5
v 0.6 0.4 0.5
v 0.6 1.4 0.5
v 0.6 1.5 0.5
v -0.6 0.3 -0.3
v -0.6 0.4 -0.3
v -0.6 1.4 -0.3
v -0.6 1.5 -0.3
v -0.5 0.3 -0.3
v -0.5 0.4 -0.3
v -0.5 1.4 -0.3
v -0.5 1.5 -0.3
v 0.5 0.3 -0.3
v 0.5 0.4 -0.3
v 0.5 1.4 -0.3
v 0.5 1.5 -0.3
v 0.6 0.3 -0.3
v 0.6 0.4 -0.3
v 0.6 1.4 -0.3
v 0.6 1.5 -0.3
v -0.6 0.4 -0.4
v -0.6 1.4 -0.4
v -0.5 0 -0.4
v -0.5 0.1 -0.4
v -0.5 0.2 -0.4
v -0.5 0.3 -0.4
v -0.5 0.4 -0.4
v -0.5 1.4 -0.4
v -0.5 1.5 -0.4
v 0.5 0 -0.4
v 0.5 0.1 -0.4
v 0.5 0.2 -0.4
v 0.5 0.3 -0.4
v 0.5 0.4 -0.4
v 0.5 1.4 -0.4
v 0.5 1.5 -0.4
v 0.6 0.4 -0.4
v 0.6 1.4 -0.4
v -0.5 0.4 -0.5
v -0.5 1.4 -0.5
v 0.5 0.4 -0.5
v 0.5 1.4 -0.5
v -0.5 0 0.5
v 0.5 0 0.5
v -0.5 0 -0.4
v 0.5 0 -0.4
v -0.5 0.3 0.6
v -0.2 0.3 0.6
v 0.2 0.3 0.6
v 0.5 0.3 0.6
v -0.6 0.3 0.5
v -0.5 0.3 0.5
v -0.2 0.3 0.5
v 0.2 0.3 0.5
v 0.5 0.3 0.5
v 0.6 0.3 0.5
v -0.6 0.3 -0.3
v -0.5 0.3 -0.3
v 0.5 0.3 -0.3
v 0.6 0.3 -0.3
v -0.6 0.4 0.6
v -0.5 0.4 0.6
v -0.2 0.4 0.6
v -0.1 0.4 0.6
v 0.1 0.4 0.6
v 0.2 0.4 0.6
v 0.5 0.4 0.6
v 0.6 0.4 0.6
v -0.6 0.4 0.5
v -0.5 0.4 0.5
v -0.2 0.4 0.5
v -0.1 0.4 0.5
v 0.1 0.4 0.5
v 0.2 0.4 0.5
v 0.5 0.4 0.5
v 0.6 0.4 0.5
v -0.6 0.4 -0.3
v -0.5 0.4 -0.3
v 0.5 0.4 -0.3
v 0.6 0.4 -0.3
v -0.6 0.4 -0.4
v -0.5 0.4 -0.4
v 0.5 0.4 -0.4
v 0.6 0.4 -0.4
v -0.5 0.4 -0.5
v 0.5 0.4 -0.5
v -0.6 1.4 0.6
v -0.5 1.4 0.6
v 0.5 1.4 0.6
v 0.6 1.4 0.6
v -0.6 1.4 0.5
v -0.5 1.4 0.5
v 0.5 1.4 0.5
v 0.6 1.4 0.5
v -0.6 1.4 -0.3
v -0.5 1.4 -0.3
v 0.5 1.4 -0.3
v 0.6 1.4 -0.3
v -0.6 1.4 -0.4
v -0.5 1.4 -0.4
v 0.5 1.4 -0.4
v 0.6 1.4 -0.4
v -0.5 1.4 -0.5
v 0.5 1.4 -0.5
v -0.5 1.5 0.6
v -0.1 1.5 0.6
v 0.1 1.5 0.6
v 0.5 1.5 0.6
v -0.6 1.5 0.5
v -0.5 1.5 0.5
v -0.1 1.5 0.5
v 0.1 1.5 0.5
v 0.5 1.5 0.5
v 0.6 1.5 0.5
v -0.2 1.5 0.3
v -0.1 1.5 0.3
v 0.1 1.5 0.3
v 0.2 1.5 0.3
v -0.3 1.5 0.2
v -0.2 1.5 0.2
v 0.2 1.5 0.2
v 0.3 1.5 0.2
v -0.3 1.5 -0.1
v -0.2 1.5 -0.1
v 0.2 1.5 -0.1
v 0.3 1.5 -0.1
v -0.2 1.5 -0.2
v -0.1 1.5 -0.2
v 0.1 1.5 -0.2
v 0.2 1.5 -0.2
v -0.6 1.5 -0.3
v -0.5 1.5 -0.3
v -0.1 1.5 -0.3
v 0.1 1.5 -0.3
v 0.5 1.5 -0.3
v 0.6 1.5 -0.3
v -0.5 1.5 -0.4
v 0.5 1.5 -0.4

# faces
f 4/4/1 2/4/1 1/4/1
f 5/4/1 2/4/1 4/4/1
f 7/4/1 4/4/1 3/4/1
f 7/4/1 6/4/1 5/4/1
f 7/4/1 5/4/1 4/4/1
f 8/4/1 6/4/1 7/4/1
f 9/4/1 6/4/1 8/4/1
f 10/4/1 6/4/1 9/4/1
f 11/4/1 9/4/1 8/4/1
f 12/4/1 9/4/1 11/4/1
f 15/5/1 14/5/1 13/5/1
f 16/5/1 14/5/1 15/5/1
f 17/6/1 16/6/1 15/6/1
f 18/6/1 16/6/1 17/6/1
f 20/1/1 18/1/1 17/1/1
f 21/1/1 18/1/1 20/1/1
f 22/1/1 18/1/1 21/1/1
f 23/4/1 20/4/1 19/4/1
f 24/4/1 20/4/1 23/4/1
f 25/4/1 22/4/1 21/4/1
f 26/4/1 22/4/1 25/4/1
f 31/4/1 27/4/1 26/4/1
f 32/4/1 27/4/1 31/4/1
f 33/4/1 29/4/1 28/4/1
f 34/4/1 29/4/1 33/4/1
f 35/4/1 31/4/1 30/4/1
f 36/4/1 31/4/1 35/4/1
f 39/4/1 38/4/1 37/4/1
f 40/4/1 38/4/1 39/4/1
f 43/4/1 42/4/1 41/4/1
f 44/4/1 42/4/1 43/4/1
f 45/4/2 46/4/2 47/4/2
f 47/4/2 46/4/2 48/4/2
f 49/4/2 50/4/2 51/4/2
f 51/4/2 50/4/2 52/4/2
f 53/5/2 54/5/2 55/5/2
f 55/5/2 54/5/2 56/5/2
f 55/6/2 56/6/2 57/6/2
f 57/6/2 56/6/2 58/6/2
f 57/1/2 58/1/2 60/1/2
f 60/1/2 58/1/2 61/1/2
f 61/1/2 58/1/2 62/1/2
f 59/4/2 60/4/2 63/4/2
f 63/4/2 60/4/2 64/4/2
f 61/4/2 62/4/2 65/4/2
f 65/4/2 62/4/2 66/4/2
f 66/4/2 67/4/2 71/4/2
f 71/4/2 67/4/2 72/4/2
f 68/4/2 69/4/2 73/4/2
f 73/4/2 69/4/2 74/4/2
f 70/4/2 71/4/2 75/4/2
f 75/4/2 71/4/2 76/4/2
f 77/4/2 78/4/2 80/4/2
f 80/4/2 78/4/2 81/4/2
f 79/4/2 80/4/2 83/4/2
f 81/4/2 82/4/2 83/4/2
f 80/4/2 81/4/2 83/4/2
f 83/4/2 82/4/2 84/4/2
f 84/4/2 82/4/2 85/4/2
f 85/4/2 82/4/2 86/4/2
f 84/4/2 85/4/2 87/4/2
f 87/4/2 85/4/2 88/4/2
f 92/4/3 90/4/3 89/4/3
f 93/4/3 90/4/3 92/4/3
f 95/4/3 92/4/3 91/4/3
f 95/4/3 94/4/3 93/4/3
f 95/4/3 93/4/3 92/4/3
f 96/4/3 94/4/3 95/4/3
f 97/4/3 94/4/3 96/4/3
f 98/4/3 94/4/3 97/4/3
f 102/4/3 100/4/3 99/4/3
f 103/4/3 102/4/3 101/4/3
f 104/4/3 100/4/3 102/4/3
f 104/4/3 102/4/3 103/4/3
f 105/4/3 100/4/3 104/4/3
f 106/4/3 100/4/3 105/4/3
f 107/4/3 105/4/3 104/4/3
f 108/4/3 105/4/3 107/4/3
f 116/4/3 110/4/3 109/4/3
f 117/4/3 110/4/3 116/4/3
f 118/4/3 112/4/3 111/4/3
f 119/4/3 112/4/3 118/4/3
f 120/1/3 116/1/3 115/1/3
f 122/6/3 115/6/3 114/6/3
f 122/5/3 114/5/3 113/5/3
f 123/1/3 121/1/3 120/1/3
f 123/6/3 115/6/3 122/6/3
f 123/1/3 120/1/3 115/1/3
f 124/1/3 121/1/3 123/1/3
f 126/5/3 122/5/3 113/5/3
f 126/2/3 123/2/3 122/2/3
f 127/1/3 125/1/3 124/1/3
f 127/2/3 123/2/3 126/2/3
f 127/1/3 124/1/3 123/1/3
f 128/1/3 125/1/3 127/1/3
f 129/1/3 125/1/3 128/1/3
f 130/1/3 128/1/3 127/1/3
f 131/1/3 128/1/3 130/1/3
f 132/5/3 126/5/3 113/5/3
f 133/6/3 127/6/3 126/6/3
f 133/5/3 126/5/3 132/5/3
f 134/1/3 130/1/3 127/1/3
f 134/6/3 127/6/3 133/6/3
f 135/1/3 130/1/3 134/1/3
f 139/4/3 136/4/3 135/4/3
f 140/4/3 136/4/3 139/4/3
f 141/4/3 138/4/3 137/4/3
f 142/4/3 138/4/3 141/4/3
f 143/4/4 144/4/4 147/4/4
f 147/4/4 144/4/4 148/4/4
f 145/4/4 146/4/4 149/4/4
f 149/4/4 146/4/4 150/4/4
f 151/4/4 152/4/4 155/4/4
f 155/4/4 152/4/4 156/4/4
f 153/4/4 154/4/4 157/4/4
f 157/4/4 154/4/4 158/4/4
f 159/4/4 160/4/4 165/4/4
f 165/4/4 160/4/4 166/4/4
f 161/5/4 162/5/4 168/5/4
f 162/6/4 163/6/4 169/6/4
f 168/5/4 162/5/4 169/5/4
f 163/1/4 164/1/4 170/1/4
f 169/6/4 163/6/4 170/6/4
f 164/4/4 165/4/4 171/4/4
f 170/1/4 164/1/4 171/1/4
f 171/4/4 165/4/4 172/4/4
f 166/4/4 167/4/4 173/4/4
f 173/4/4 167/4/4 174/4/4
f 172/4/4 173/4/4 175/4/4
f 175/4/4 173/4/4 176/4/4
f 177/4/4 178/4/4 179/4/4
f 179/4/4 178/4/4 180/4/4
f 183/5/5 182/5/5 181/5/5
f 184/5/5 182/5/5 183/5/5
f 190/4/5 186/4/5 185/4/5
f 191/4/5 186/4/5 190/4/5
f 192/4/5 188/4/5 187/4/5
f 193/4/5 188/4/5 192/4/5
f 195/4/5 190/4/5 189/4/5
f 196/4/5 190/4/5 195/4/5
f 197/4/5 194/4/5 193/4/5
f 198/4/5 194/4/5 197/4/5
f 207/4/5 200/4/5 199/4/5
f 208/4/5 200/4/5 207/4/5
f 209/4/5 202/4/5 201/4/5
f 210/4/5 202/4/5 209/4/5
f 211/4/5 204/4/5 203/4/5
f 212/4/5 204/4/5 211/4/5
f 213/4/5 206/4/5 205/4/5
f 214/4/5 206/4/5 213/4/5
f 219/4/5 216/4/5 215/4/5
f 220/4/5 216/4/5 219/4/5
f 221/4/5 218/4/5 217/4/5
f 222/4/5 218/4/5 221/4/5
f 223/4/5 221/4/5 220/4/5
f 224/4/5 221/4/5 223/4/5
f 225/4/6 226/4/6 229/4/6
f 229/4/6 226/4/6 230/4/6
f 227/4/6 228/4/6 231/4/6
f 231/4/6 228/4/6 232/4/6
f 233/4/6 234/4/6 237/4/6
f 237/4/6 234/4/6 238/4/6
f 235/4/6 236/4/6 239/4/6
f 239/4/6 236/4/6 240/4/6
f 238/4/6 239/4/6 241/4/6
f 241/4/6 239/4/6 242/4/6
f 243/4/6 244/4/6 248/4/6
f 248/4/6 244/4/6 249/4/6
f 245/4/6 246/4/6 250/4/6
f 250/4/6 246/4/6 251/4/6
f 248/4/6 249/4/6 253/4/6
f 247/4/6 248/4/6 253/4/6
f 249/1/6 250/1/6 254/1/6
f 253/4/6 249/4/6 254/4/6
f 251/4/6 252/4/6 255/4/6
f 254/1/6 250/1/6 255/1/6
f 250/4/6 251/4/6 255/4/6
f 255/4/6 252/4/6 256/4/6
f 247/4/6 253/4/6 257/4/6
f 253/1/6 254/1/6 258/1/6
f 257/4/6 253/4/6 258/4/6
f 254/1/6 255/1/6 258/1/6
f 255/1/6 256/1/6 258/1/6
f 256/4/6 252/4/6 259/4/6
f 258/1/6 256/1/6 259/1/6
f 259/4/6 252/4/6 260/4/6
f 247/4/6 257/4/6 261/4/6
f 257/1/6 258/1/6 261/1/6
f 259/1/6 260/1/6 261/1/6
f 258/1/6 259/1/6 261/1/6
f 261/1/6 260/1/6 262/1/6
f 262/1/6 260/1/6 263/1/6
f 260/4/6 252/4/6 264/4/6
f 263/1/6 260/1/6 264/1/6
f 262/1/6 263/1/6 265/1/6
f 261/4/6 262/4/6 265/4/6
f 265/1/6 263/1/6 266/1/6
f 266/1/6 263/1/6 267/1/6
f 263/4/6 264/4/6 268/4/6
f 267/1/6 263/1/6 268/1/6
f 247/4/6 261/4/6 269/4/6
f 261/4/6 265/4/6 269/4/6
f 265/4/6 266/4/6 269/4/6
f 269/4/6 266/4/6 270/4/6
f 266/1/6 267/1/6 271/1/6
f 270/4/6 266/4/6 271/4/6
f 267/4/6 268/4/6 272/4/6
f 271/1/6 267/1/6 272/1/6
f 264/4/6 252/4/6 273/4/6
f 272/4/6 268/4/6 273/4/6
f 268/4/6 264/4/6 273/4/6
f 273/4/6 252/4/6 274/4/6
f 271/4/6 272/4/6 275/4/6
f 272/4/6 273/4/6 275/4/6
f 270/4/6 271/4/6 275/4/6
f 275/4/6 273/4/6 276/4/6
